ISO-10303-21;
HEADER;
/* Generated by software containing ST-Developer
 * from STEP Tools, Inc. (www.steptools.com) 
 */

FILE_DESCRIPTION(
/* description */ (''),
/* implementation_level */ '2;1');

FILE_NAME(
/* name */ 'CCD Camera Casing.stp',
/* time_stamp */ '2026-08-13T14:24:58-04:00',
/* author */ ('eliqu'),
/* organization */ (''),
/* preprocessor_version */ 'ST-DEVELOPER v20',
/* originating_system */ 'Autodesk Inventor 2025',
/* authorisation */ '');

FILE_SCHEMA (('CONFIG_CONTROL_DESIGN'));
ENDSEC;

DATA;
#10=MECHANICAL_DESIGN_GEOMETRIC_PRESENTATION_REPRESENTATION('',(#29,#30,
#31,#32,#33,#34,#35,#36,#37,#38,#39,#40,#41),#1177);
#11=GEOMETRICALLY_BOUNDED_WIREFRAME_SHAPE_REPRESENTATION('',(#12,#13),#1176);
#12=GEOMETRIC_CURVE_SET('Sketch2',(#17,#18,#19,#20,#21,#22,#23,#24,#25,
#26,#27,#28,#1166));
#13=GEOMETRIC_CURVE_SET('Sketch3',(#102,#103,#104,#105,#106,#107,#1173));
#14=SHAPE_REPRESENTATION_RELATIONSHIP('SRR','None',#1188,#16);
#15=SHAPE_REPRESENTATION_RELATIONSHIP('SRR','None',#1188,#11);
#16=ADVANCED_BREP_SHAPE_REPRESENTATION('',(#42),#1176);
#17=POLYLINE('',(#1142,#1143));
#18=POLYLINE('',(#1144,#1145));
#19=POLYLINE('',(#1146,#1147));
#20=POLYLINE('',(#1148,#1149));
#21=POLYLINE('',(#1150,#1151));
#22=POLYLINE('',(#1152,#1153));
#23=POLYLINE('',(#1154,#1155));
#24=POLYLINE('',(#1156,#1157));
#25=POLYLINE('',(#1158,#1159));
#26=POLYLINE('',(#1160,#1161));
#27=POLYLINE('',(#1162,#1163));
#28=POLYLINE('',(#1164,#1165));
#29=STYLED_ITEM('',(#1197),#42);
#30=STYLED_ITEM('',(#1198),#17);
#31=STYLED_ITEM('',(#1198),#18);
#32=STYLED_ITEM('',(#1198),#19);
#33=STYLED_ITEM('',(#1198),#20);
#34=STYLED_ITEM('',(#1199),#21);
#35=STYLED_ITEM('',(#1199),#25);
#36=STYLED_ITEM('',(#1200),#102);
#37=STYLED_ITEM('',(#1200),#103);
#38=STYLED_ITEM('',(#1200),#104);
#39=STYLED_ITEM('',(#1200),#105);
#40=STYLED_ITEM('',(#1198),#106);
#41=STYLED_ITEM('',(#1198),#107);
#42=MANIFOLD_SOLID_BREP('Solid1',#687);
#43=CYLINDRICAL_SURFACE('',#716,0.137795275590551);
#44=CYLINDRICAL_SURFACE('',#723,0.137795275590551);
#45=CYLINDRICAL_SURFACE('',#727,0.177165354330709);
#46=CYLINDRICAL_SURFACE('',#729,0.177165354330709);
#47=CYLINDRICAL_SURFACE('',#742,0.078740157480315);
#48=CYLINDRICAL_SURFACE('',#743,0.078740157480315);
#49=CYLINDRICAL_SURFACE('',#746,0.078740157480315);
#50=CYLINDRICAL_SURFACE('',#747,0.078740157480315);
#51=CYLINDRICAL_SURFACE('',#750,0.078740157480315);
#52=CYLINDRICAL_SURFACE('',#752,0.078740157480315);
#53=CYLINDRICAL_SURFACE('',#758,0.177165354330709);
#54=CYLINDRICAL_SURFACE('',#760,0.177165354330709);
#55=FACE_BOUND('',#148,.T.);
#56=FACE_BOUND('',#151,.T.);
#57=FACE_BOUND('',#153,.T.);
#58=FACE_BOUND('',#156,.T.);
#59=FACE_BOUND('',#160,.T.);
#60=FACE_BOUND('',#162,.T.);
#61=FACE_BOUND('',#164,.T.);
#62=FACE_BOUND('',#165,.T.);
#63=FACE_BOUND('',#167,.T.);
#64=FACE_BOUND('',#168,.T.);
#65=FACE_BOUND('',#170,.T.);
#66=FACE_BOUND('',#171,.T.);
#67=FACE_BOUND('',#179,.T.);
#68=FACE_BOUND('',#180,.T.);
#69=FACE_BOUND('',#182,.T.);
#70=FACE_BOUND('',#183,.T.);
#71=FACE_BOUND('',#185,.T.);
#72=FACE_BOUND('',#186,.T.);
#73=FACE_BOUND('',#192,.T.);
#74=FACE_BOUND('',#193,.T.);
#75=FACE_BOUND('',#196,.T.);
#76=FACE_BOUND('',#197,.T.);
#77=FACE_BOUND('',#199,.T.);
#78=CIRCLE('',#714,0.177165354330709);
#79=CIRCLE('',#715,0.137795275590551);
#80=CIRCLE('',#717,0.137795275590551);
#81=CIRCLE('',#719,0.177165354330709);
#82=CIRCLE('',#721,0.177165354330709);
#83=CIRCLE('',#722,0.137795275590551);
#84=CIRCLE('',#724,0.137795275590551);
#85=CIRCLE('',#726,0.177165354330709);
#86=CIRCLE('',#728,0.177165354330709);
#87=CIRCLE('',#730,0.177165354330709);
#88=CIRCLE('',#734,0.078740157480315);
#89=CIRCLE('',#735,0.078740157480315);
#90=CIRCLE('',#737,0.078740157480315);
#91=CIRCLE('',#738,0.078740157480315);
#92=CIRCLE('',#740,0.078740157480315);
#93=CIRCLE('',#741,0.078740157480315);
#94=CIRCLE('',#744,0.078740157480315);
#95=CIRCLE('',#745,0.078740157480315);
#96=CIRCLE('',#748,0.078740157480315);
#97=CIRCLE('',#749,0.078740157480315);
#98=CIRCLE('',#751,0.078740157480315);
#99=CIRCLE('',#753,0.078740157480315);
#100=CIRCLE('',#759,0.177165354330709);
#101=CIRCLE('',#761,0.177165354330709);
#102=CIRCLE('',#768,0.0885826771653588);
#103=CIRCLE('',#769,0.127952755905518);
#104=CIRCLE('',#770,0.0885826771653589);
#105=CIRCLE('',#771,0.127952755905518);
#106=CIRCLE('',#772,0.127952755905519);
#107=CIRCLE('',#773,0.088582677165359);
#108=FACE_OUTER_BOUND('',#143,.T.);
#109=FACE_OUTER_BOUND('',#144,.T.);
#110=FACE_OUTER_BOUND('',#145,.T.);
#111=FACE_OUTER_BOUND('',#146,.T.);
#112=FACE_OUTER_BOUND('',#147,.T.);
#113=FACE_OUTER_BOUND('',#149,.T.);
#114=FACE_OUTER_BOUND('',#150,.T.);
#115=FACE_OUTER_BOUND('',#152,.T.);
#116=FACE_OUTER_BOUND('',#154,.T.);
#117=FACE_OUTER_BOUND('',#155,.T.);
#118=FACE_OUTER_BOUND('',#157,.T.);
#119=FACE_OUTER_BOUND('',#158,.T.);
#120=FACE_OUTER_BOUND('',#159,.T.);
#121=FACE_OUTER_BOUND('',#161,.T.);
#122=FACE_OUTER_BOUND('',#163,.T.);
#123=FACE_OUTER_BOUND('',#166,.T.);
#124=FACE_OUTER_BOUND('',#169,.T.);
#125=FACE_OUTER_BOUND('',#172,.T.);
#126=FACE_OUTER_BOUND('',#173,.T.);
#127=FACE_OUTER_BOUND('',#174,.T.);
#128=FACE_OUTER_BOUND('',#175,.T.);
#129=FACE_OUTER_BOUND('',#176,.T.);
#130=FACE_OUTER_BOUND('',#177,.T.);
#131=FACE_OUTER_BOUND('',#178,.T.);
#132=FACE_OUTER_BOUND('',#181,.T.);
#133=FACE_OUTER_BOUND('',#184,.T.);
#134=FACE_OUTER_BOUND('',#187,.T.);
#135=FACE_OUTER_BOUND('',#188,.T.);
#136=FACE_OUTER_BOUND('',#189,.T.);
#137=FACE_OUTER_BOUND('',#190,.T.);
#138=FACE_OUTER_BOUND('',#191,.T.);
#139=FACE_OUTER_BOUND('',#194,.T.);
#140=FACE_OUTER_BOUND('',#195,.T.);
#141=FACE_OUTER_BOUND('',#198,.T.);
#142=FACE_OUTER_BOUND('',#200,.T.);
#143=EDGE_LOOP('',(#461,#462,#463,#464));
#144=EDGE_LOOP('',(#465,#466,#467,#468));
#145=EDGE_LOOP('',(#469,#470,#471,#472));
#146=EDGE_LOOP('',(#473,#474,#475,#476));
#147=EDGE_LOOP('',(#477));
#148=EDGE_LOOP('',(#478));
#149=EDGE_LOOP('',(#479,#480,#481,#482));
#150=EDGE_LOOP('',(#483));
#151=EDGE_LOOP('',(#484));
#152=EDGE_LOOP('',(#485));
#153=EDGE_LOOP('',(#486));
#154=EDGE_LOOP('',(#487,#488,#489,#490));
#155=EDGE_LOOP('',(#491));
#156=EDGE_LOOP('',(#492));
#157=EDGE_LOOP('',(#493,#494,#495,#496));
#158=EDGE_LOOP('',(#497,#498,#499,#500));
#159=EDGE_LOOP('',(#501,#502,#503,#504));
#160=EDGE_LOOP('',(#505,#506,#507,#508));
#161=EDGE_LOOP('',(#509,#510,#511,#512));
#162=EDGE_LOOP('',(#513,#514,#515,#516));
#163=EDGE_LOOP('',(#517,#518,#519,#520));
#164=EDGE_LOOP('',(#521));
#165=EDGE_LOOP('',(#522));
#166=EDGE_LOOP('',(#523,#524,#525,#526));
#167=EDGE_LOOP('',(#527));
#168=EDGE_LOOP('',(#528));
#169=EDGE_LOOP('',(#529,#530,#531,#532));
#170=EDGE_LOOP('',(#533));
#171=EDGE_LOOP('',(#534));
#172=EDGE_LOOP('',(#535,#536,#537,#538));
#173=EDGE_LOOP('',(#539,#540,#541,#542));
#174=EDGE_LOOP('',(#543,#544,#545,#546));
#175=EDGE_LOOP('',(#547,#548,#549,#550));
#176=EDGE_LOOP('',(#551,#552,#553,#554));
#177=EDGE_LOOP('',(#555,#556,#557,#558));
#178=EDGE_LOOP('',(#559,#560,#561,#562));
#179=EDGE_LOOP('',(#563));
#180=EDGE_LOOP('',(#564));
#181=EDGE_LOOP('',(#565,#566,#567,#568));
#182=EDGE_LOOP('',(#569));
#183=EDGE_LOOP('',(#570));
#184=EDGE_LOOP('',(#571,#572,#573,#574));
#185=EDGE_LOOP('',(#575));
#186=EDGE_LOOP('',(#576));
#187=EDGE_LOOP('',(#577,#578,#579,#580,#581,#582,#583,#584));
#188=EDGE_LOOP('',(#585,#586,#587,#588));
#189=EDGE_LOOP('',(#589,#590,#591,#592));
#190=EDGE_LOOP('',(#593,#594,#595,#596));
#191=EDGE_LOOP('',(#597,#598,#599,#600));
#192=EDGE_LOOP('',(#601));
#193=EDGE_LOOP('',(#602));
#194=EDGE_LOOP('',(#603,#604,#605,#606));
#195=EDGE_LOOP('',(#607,#608,#609,#610));
#196=EDGE_LOOP('',(#611));
#197=EDGE_LOOP('',(#612));
#198=EDGE_LOOP('',(#613,#614,#615,#616));
#199=EDGE_LOOP('',(#617,#618,#619,#620,#621,#622,#623,#624));
#200=EDGE_LOOP('',(#625,#626,#627,#628));
#201=LINE('',#970,#261);
#202=LINE('',#972,#262);
#203=LINE('',#974,#263);
#204=LINE('',#975,#264);
#205=LINE('',#978,#265);
#206=LINE('',#980,#266);
#207=LINE('',#981,#267);
#208=LINE('',#984,#268);
#209=LINE('',#986,#269);
#210=LINE('',#987,#270);
#211=LINE('',#989,#271);
#212=LINE('',#990,#272);
#213=LINE('',#999,#273);
#214=LINE('',#1011,#274);
#215=LINE('',#1017,#275);
#216=LINE('',#1021,#276);
#217=LINE('',#1026,#277);
#218=LINE('',#1028,#278);
#219=LINE('',#1030,#279);
#220=LINE('',#1031,#280);
#221=LINE('',#1035,#281);
#222=LINE('',#1037,#282);
#223=LINE('',#1039,#283);
#224=LINE('',#1040,#284);
#225=LINE('',#1043,#285);
#226=LINE('',#1045,#286);
#227=LINE('',#1046,#287);
#228=LINE('',#1053,#288);
#229=LINE('',#1054,#289);
#230=LINE('',#1061,#290);
#231=LINE('',#1063,#291);
#232=LINE('',#1064,#292);
#233=LINE('',#1070,#293);
#234=LINE('',#1075,#294);
#235=LINE('',#1078,#295);
#236=LINE('',#1083,#296);
#237=LINE('',#1087,#297);
#238=LINE('',#1091,#298);
#239=LINE('',#1095,#299);
#240=LINE('',#1096,#300);
#241=LINE('',#1099,#301);
#242=LINE('',#1100,#302);
#243=LINE('',#1103,#303);
#244=LINE('',#1104,#304);
#245=LINE('',#1106,#305);
#246=LINE('',#1107,#306);
#247=LINE('',#1111,#307);
#248=LINE('',#1115,#308);
#249=LINE('',#1119,#309);
#250=LINE('',#1121,#310);
#251=LINE('',#1123,#311);
#252=LINE('',#1124,#312);
#253=LINE('',#1127,#313);
#254=LINE('',#1129,#314);
#255=LINE('',#1130,#315);
#256=LINE('',#1133,#316);
#257=LINE('',#1135,#317);
#258=LINE('',#1136,#318);
#259=LINE('',#1138,#319);
#260=LINE('',#1139,#320);
#261=VECTOR('',#778,0.393700787401575);
#262=VECTOR('',#779,0.393700787401575);
#263=VECTOR('',#780,0.393700787401575);
#264=VECTOR('',#781,0.393700787401575);
#265=VECTOR('',#784,0.393700787401575);
#266=VECTOR('',#785,0.393700787401575);
#267=VECTOR('',#786,0.393700787401575);
#268=VECTOR('',#789,0.393700787401575);
#269=VECTOR('',#790,0.393700787401575);
#270=VECTOR('',#791,0.393700787401575);
#271=VECTOR('',#794,0.393700787401575);
#272=VECTOR('',#795,0.393700787401575);
#273=VECTOR('',#806,0.137795275590551);
#274=VECTOR('',#821,0.137795275590551);
#275=VECTOR('',#828,0.177165354330709);
#276=VECTOR('',#833,0.177165354330709);
#277=VECTOR('',#838,0.393700787401575);
#278=VECTOR('',#839,0.393700787401575);
#279=VECTOR('',#840,0.393700787401575);
#280=VECTOR('',#841,0.393700787401575);
#281=VECTOR('',#844,0.393700787401575);
#282=VECTOR('',#845,0.393700787401575);
#283=VECTOR('',#846,0.393700787401575);
#284=VECTOR('',#847,0.393700787401575);
#285=VECTOR('',#850,0.393700787401575);
#286=VECTOR('',#851,0.393700787401575);
#287=VECTOR('',#852,0.393700787401575);
#288=VECTOR('',#859,0.393700787401575);
#289=VECTOR('',#860,0.393700787401575);
#290=VECTOR('',#867,0.393700787401575);
#291=VECTOR('',#868,0.393700787401575);
#292=VECTOR('',#869,0.393700787401575);
#293=VECTOR('',#876,0.078740157480315);
#294=VECTOR('',#881,0.078740157480315);
#295=VECTOR('',#886,0.078740157480315);
#296=VECTOR('',#891,0.078740157480315);
#297=VECTOR('',#896,0.078740157480315);
#298=VECTOR('',#901,0.078740157480315);
#299=VECTOR('',#906,0.393700787401575);
#300=VECTOR('',#907,0.393700787401575);
#301=VECTOR('',#910,0.393700787401575);
#302=VECTOR('',#911,0.393700787401575);
#303=VECTOR('',#914,0.393700787401575);
#304=VECTOR('',#915,0.393700787401575);
#305=VECTOR('',#918,0.393700787401575);
#306=VECTOR('',#919,0.393700787401575);
#307=VECTOR('',#924,0.177165354330709);
#308=VECTOR('',#929,0.177165354330709);
#309=VECTOR('',#932,0.393700787401575);
#310=VECTOR('',#933,0.393700787401575);
#311=VECTOR('',#934,0.393700787401575);
#312=VECTOR('',#935,0.393700787401575);
#313=VECTOR('',#938,0.393700787401575);
#314=VECTOR('',#939,0.393700787401575);
#315=VECTOR('',#940,0.393700787401575);
#316=VECTOR('',#943,0.393700787401575);
#317=VECTOR('',#944,0.393700787401575);
#318=VECTOR('',#945,0.393700787401575);
#319=VECTOR('',#948,0.393700787401575);
#320=VECTOR('',#949,0.393700787401575);
#321=VERTEX_POINT('',#968);
#322=VERTEX_POINT('',#969);
#323=VERTEX_POINT('',#971);
#324=VERTEX_POINT('',#973);
#325=VERTEX_POINT('',#977);
#326=VERTEX_POINT('',#979);
#327=VERTEX_POINT('',#983);
#328=VERTEX_POINT('',#985);
#329=VERTEX_POINT('',#992);
#330=VERTEX_POINT('',#994);
#331=VERTEX_POINT('',#997);
#332=VERTEX_POINT('',#1001);
#333=VERTEX_POINT('',#1004);
#334=VERTEX_POINT('',#1006);
#335=VERTEX_POINT('',#1009);
#336=VERTEX_POINT('',#1013);
#337=VERTEX_POINT('',#1016);
#338=VERTEX_POINT('',#1020);
#339=VERTEX_POINT('',#1024);
#340=VERTEX_POINT('',#1025);
#341=VERTEX_POINT('',#1027);
#342=VERTEX_POINT('',#1029);
#343=VERTEX_POINT('',#1033);
#344=VERTEX_POINT('',#1034);
#345=VERTEX_POINT('',#1036);
#346=VERTEX_POINT('',#1038);
#347=VERTEX_POINT('',#1042);
#348=VERTEX_POINT('',#1044);
#349=VERTEX_POINT('',#1047);
#350=VERTEX_POINT('',#1049);
#351=VERTEX_POINT('',#1052);
#352=VERTEX_POINT('',#1055);
#353=VERTEX_POINT('',#1057);
#354=VERTEX_POINT('',#1060);
#355=VERTEX_POINT('',#1062);
#356=VERTEX_POINT('',#1065);
#357=VERTEX_POINT('',#1067);
#358=VERTEX_POINT('',#1072);
#359=VERTEX_POINT('',#1074);
#360=VERTEX_POINT('',#1080);
#361=VERTEX_POINT('',#1082);
#362=VERTEX_POINT('',#1086);
#363=VERTEX_POINT('',#1090);
#364=VERTEX_POINT('',#1094);
#365=VERTEX_POINT('',#1098);
#366=VERTEX_POINT('',#1102);
#367=VERTEX_POINT('',#1109);
#368=VERTEX_POINT('',#1113);
#369=VERTEX_POINT('',#1117);
#370=VERTEX_POINT('',#1118);
#371=VERTEX_POINT('',#1120);
#372=VERTEX_POINT('',#1122);
#373=VERTEX_POINT('',#1126);
#374=VERTEX_POINT('',#1128);
#375=VERTEX_POINT('',#1132);
#376=VERTEX_POINT('',#1134);
#377=EDGE_CURVE('',#321,#322,#201,.T.);
#378=EDGE_CURVE('',#323,#321,#202,.T.);
#379=EDGE_CURVE('',#324,#323,#203,.T.);
#380=EDGE_CURVE('',#324,#322,#204,.T.);
#381=EDGE_CURVE('',#322,#325,#205,.T.);
#382=EDGE_CURVE('',#326,#324,#206,.T.);
#383=EDGE_CURVE('',#326,#325,#207,.T.);
#384=EDGE_CURVE('',#325,#327,#208,.T.);
#385=EDGE_CURVE('',#328,#326,#209,.T.);
#386=EDGE_CURVE('',#328,#327,#210,.T.);
#387=EDGE_CURVE('',#327,#321,#211,.T.);
#388=EDGE_CURVE('',#323,#328,#212,.T.);
#389=EDGE_CURVE('',#329,#329,#78,.T.);
#390=EDGE_CURVE('',#330,#330,#79,.T.);
#391=EDGE_CURVE('',#331,#331,#80,.T.);
#392=EDGE_CURVE('',#331,#330,#213,.T.);
#393=EDGE_CURVE('',#332,#332,#81,.T.);
#394=EDGE_CURVE('',#333,#333,#82,.T.);
#395=EDGE_CURVE('',#334,#334,#83,.T.);
#396=EDGE_CURVE('',#335,#335,#84,.T.);
#397=EDGE_CURVE('',#335,#334,#214,.T.);
#398=EDGE_CURVE('',#336,#336,#85,.T.);
#399=EDGE_CURVE('',#332,#337,#215,.T.);
#400=EDGE_CURVE('',#337,#337,#86,.T.);
#401=EDGE_CURVE('',#336,#338,#216,.T.);
#402=EDGE_CURVE('',#338,#338,#87,.T.);
#403=EDGE_CURVE('',#339,#340,#217,.T.);
#404=EDGE_CURVE('',#341,#339,#218,.T.);
#405=EDGE_CURVE('',#342,#341,#219,.T.);
#406=EDGE_CURVE('',#340,#342,#220,.T.);
#407=EDGE_CURVE('',#343,#344,#221,.T.);
#408=EDGE_CURVE('',#343,#345,#222,.T.);
#409=EDGE_CURVE('',#345,#346,#223,.T.);
#410=EDGE_CURVE('',#346,#344,#224,.T.);
#411=EDGE_CURVE('',#345,#347,#225,.T.);
#412=EDGE_CURVE('',#347,#348,#226,.T.);
#413=EDGE_CURVE('',#348,#346,#227,.T.);
#414=EDGE_CURVE('',#349,#349,#88,.T.);
#415=EDGE_CURVE('',#350,#350,#89,.T.);
#416=EDGE_CURVE('',#351,#343,#228,.T.);
#417=EDGE_CURVE('',#351,#347,#229,.T.);
#418=EDGE_CURVE('',#352,#352,#90,.T.);
#419=EDGE_CURVE('',#353,#353,#91,.T.);
#420=EDGE_CURVE('',#354,#341,#230,.T.);
#421=EDGE_CURVE('',#355,#354,#231,.T.);
#422=EDGE_CURVE('',#342,#355,#232,.T.);
#423=EDGE_CURVE('',#356,#356,#92,.T.);
#424=EDGE_CURVE('',#357,#357,#93,.T.);
#425=EDGE_CURVE('',#353,#357,#233,.T.);
#426=EDGE_CURVE('',#358,#358,#94,.T.);
#427=EDGE_CURVE('',#358,#359,#234,.T.);
#428=EDGE_CURVE('',#359,#359,#95,.T.);
#429=EDGE_CURVE('',#352,#356,#235,.T.);
#430=EDGE_CURVE('',#360,#360,#96,.T.);
#431=EDGE_CURVE('',#360,#361,#236,.T.);
#432=EDGE_CURVE('',#361,#361,#97,.T.);
#433=EDGE_CURVE('',#350,#362,#237,.T.);
#434=EDGE_CURVE('',#362,#362,#98,.T.);
#435=EDGE_CURVE('',#349,#363,#238,.T.);
#436=EDGE_CURVE('',#363,#363,#99,.T.);
#437=EDGE_CURVE('',#339,#364,#239,.T.);
#438=EDGE_CURVE('',#354,#364,#240,.T.);
#439=EDGE_CURVE('',#365,#340,#241,.T.);
#440=EDGE_CURVE('',#365,#364,#242,.T.);
#441=EDGE_CURVE('',#366,#348,#243,.T.);
#442=EDGE_CURVE('',#344,#366,#244,.T.);
#443=EDGE_CURVE('',#355,#351,#245,.T.);
#444=EDGE_CURVE('',#366,#365,#246,.T.);
#445=EDGE_CURVE('',#367,#367,#100,.T.);
#446=EDGE_CURVE('',#367,#329,#247,.T.);
#447=EDGE_CURVE('',#368,#368,#101,.T.);
#448=EDGE_CURVE('',#368,#333,#248,.T.);
#449=EDGE_CURVE('',#369,#370,#249,.T.);
#450=EDGE_CURVE('',#370,#371,#250,.T.);
#451=EDGE_CURVE('',#372,#371,#251,.T.);
#452=EDGE_CURVE('',#369,#372,#252,.T.);
#453=EDGE_CURVE('',#373,#369,#253,.T.);
#454=EDGE_CURVE('',#374,#372,#254,.T.);
#455=EDGE_CURVE('',#373,#374,#255,.T.);
#456=EDGE_CURVE('',#375,#373,#256,.T.);
#457=EDGE_CURVE('',#376,#374,#257,.T.);
#458=EDGE_CURVE('',#375,#376,#258,.T.);
#459=EDGE_CURVE('',#370,#375,#259,.T.);
#460=EDGE_CURVE('',#371,#376,#260,.T.);
#461=ORIENTED_EDGE('',*,*,#377,.F.);
#462=ORIENTED_EDGE('',*,*,#378,.F.);
#463=ORIENTED_EDGE('',*,*,#379,.F.);
#464=ORIENTED_EDGE('',*,*,#380,.T.);
#465=ORIENTED_EDGE('',*,*,#381,.F.);
#466=ORIENTED_EDGE('',*,*,#380,.F.);
#467=ORIENTED_EDGE('',*,*,#382,.F.);
#468=ORIENTED_EDGE('',*,*,#383,.T.);
#469=ORIENTED_EDGE('',*,*,#384,.F.);
#470=ORIENTED_EDGE('',*,*,#383,.F.);
#471=ORIENTED_EDGE('',*,*,#385,.F.);
#472=ORIENTED_EDGE('',*,*,#386,.T.);
#473=ORIENTED_EDGE('',*,*,#387,.F.);
#474=ORIENTED_EDGE('',*,*,#386,.F.);
#475=ORIENTED_EDGE('',*,*,#388,.F.);
#476=ORIENTED_EDGE('',*,*,#378,.T.);
#477=ORIENTED_EDGE('',*,*,#389,.F.);
#478=ORIENTED_EDGE('',*,*,#390,.T.);
#479=ORIENTED_EDGE('',*,*,#391,.F.);
#480=ORIENTED_EDGE('',*,*,#392,.T.);
#481=ORIENTED_EDGE('',*,*,#390,.F.);
#482=ORIENTED_EDGE('',*,*,#392,.F.);
#483=ORIENTED_EDGE('',*,*,#393,.F.);
#484=ORIENTED_EDGE('',*,*,#391,.T.);
#485=ORIENTED_EDGE('',*,*,#394,.F.);
#486=ORIENTED_EDGE('',*,*,#395,.T.);
#487=ORIENTED_EDGE('',*,*,#396,.F.);
#488=ORIENTED_EDGE('',*,*,#397,.T.);
#489=ORIENTED_EDGE('',*,*,#395,.F.);
#490=ORIENTED_EDGE('',*,*,#397,.F.);
#491=ORIENTED_EDGE('',*,*,#398,.F.);
#492=ORIENTED_EDGE('',*,*,#396,.T.);
#493=ORIENTED_EDGE('',*,*,#393,.T.);
#494=ORIENTED_EDGE('',*,*,#399,.T.);
#495=ORIENTED_EDGE('',*,*,#400,.F.);
#496=ORIENTED_EDGE('',*,*,#399,.F.);
#497=ORIENTED_EDGE('',*,*,#398,.T.);
#498=ORIENTED_EDGE('',*,*,#401,.T.);
#499=ORIENTED_EDGE('',*,*,#402,.F.);
#500=ORIENTED_EDGE('',*,*,#401,.F.);
#501=ORIENTED_EDGE('',*,*,#403,.F.);
#502=ORIENTED_EDGE('',*,*,#404,.F.);
#503=ORIENTED_EDGE('',*,*,#405,.F.);
#504=ORIENTED_EDGE('',*,*,#406,.F.);
#505=ORIENTED_EDGE('',*,*,#385,.T.);
#506=ORIENTED_EDGE('',*,*,#382,.T.);
#507=ORIENTED_EDGE('',*,*,#379,.T.);
#508=ORIENTED_EDGE('',*,*,#388,.T.);
#509=ORIENTED_EDGE('',*,*,#407,.F.);
#510=ORIENTED_EDGE('',*,*,#408,.T.);
#511=ORIENTED_EDGE('',*,*,#409,.T.);
#512=ORIENTED_EDGE('',*,*,#410,.T.);
#513=ORIENTED_EDGE('',*,*,#384,.T.);
#514=ORIENTED_EDGE('',*,*,#387,.T.);
#515=ORIENTED_EDGE('',*,*,#377,.T.);
#516=ORIENTED_EDGE('',*,*,#381,.T.);
#517=ORIENTED_EDGE('',*,*,#411,.T.);
#518=ORIENTED_EDGE('',*,*,#412,.T.);
#519=ORIENTED_EDGE('',*,*,#413,.T.);
#520=ORIENTED_EDGE('',*,*,#409,.F.);
#521=ORIENTED_EDGE('',*,*,#414,.T.);
#522=ORIENTED_EDGE('',*,*,#415,.T.);
#523=ORIENTED_EDGE('',*,*,#416,.F.);
#524=ORIENTED_EDGE('',*,*,#417,.T.);
#525=ORIENTED_EDGE('',*,*,#411,.F.);
#526=ORIENTED_EDGE('',*,*,#408,.F.);
#527=ORIENTED_EDGE('',*,*,#418,.T.);
#528=ORIENTED_EDGE('',*,*,#419,.T.);
#529=ORIENTED_EDGE('',*,*,#405,.T.);
#530=ORIENTED_EDGE('',*,*,#420,.F.);
#531=ORIENTED_EDGE('',*,*,#421,.F.);
#532=ORIENTED_EDGE('',*,*,#422,.F.);
#533=ORIENTED_EDGE('',*,*,#423,.T.);
#534=ORIENTED_EDGE('',*,*,#424,.T.);
#535=ORIENTED_EDGE('',*,*,#419,.F.);
#536=ORIENTED_EDGE('',*,*,#425,.T.);
#537=ORIENTED_EDGE('',*,*,#424,.F.);
#538=ORIENTED_EDGE('',*,*,#425,.F.);
#539=ORIENTED_EDGE('',*,*,#426,.F.);
#540=ORIENTED_EDGE('',*,*,#427,.T.);
#541=ORIENTED_EDGE('',*,*,#428,.F.);
#542=ORIENTED_EDGE('',*,*,#427,.F.);
#543=ORIENTED_EDGE('',*,*,#418,.F.);
#544=ORIENTED_EDGE('',*,*,#429,.T.);
#545=ORIENTED_EDGE('',*,*,#423,.F.);
#546=ORIENTED_EDGE('',*,*,#429,.F.);
#547=ORIENTED_EDGE('',*,*,#430,.F.);
#548=ORIENTED_EDGE('',*,*,#431,.T.);
#549=ORIENTED_EDGE('',*,*,#432,.F.);
#550=ORIENTED_EDGE('',*,*,#431,.F.);
#551=ORIENTED_EDGE('',*,*,#415,.F.);
#552=ORIENTED_EDGE('',*,*,#433,.T.);
#553=ORIENTED_EDGE('',*,*,#434,.F.);
#554=ORIENTED_EDGE('',*,*,#433,.F.);
#555=ORIENTED_EDGE('',*,*,#414,.F.);
#556=ORIENTED_EDGE('',*,*,#435,.T.);
#557=ORIENTED_EDGE('',*,*,#436,.F.);
#558=ORIENTED_EDGE('',*,*,#435,.F.);
#559=ORIENTED_EDGE('',*,*,#404,.T.);
#560=ORIENTED_EDGE('',*,*,#437,.T.);
#561=ORIENTED_EDGE('',*,*,#438,.F.);
#562=ORIENTED_EDGE('',*,*,#420,.T.);
#563=ORIENTED_EDGE('',*,*,#434,.T.);
#564=ORIENTED_EDGE('',*,*,#436,.T.);
#565=ORIENTED_EDGE('',*,*,#403,.T.);
#566=ORIENTED_EDGE('',*,*,#439,.F.);
#567=ORIENTED_EDGE('',*,*,#440,.T.);
#568=ORIENTED_EDGE('',*,*,#437,.F.);
#569=ORIENTED_EDGE('',*,*,#426,.T.);
#570=ORIENTED_EDGE('',*,*,#430,.T.);
#571=ORIENTED_EDGE('',*,*,#413,.F.);
#572=ORIENTED_EDGE('',*,*,#441,.F.);
#573=ORIENTED_EDGE('',*,*,#442,.F.);
#574=ORIENTED_EDGE('',*,*,#410,.F.);
#575=ORIENTED_EDGE('',*,*,#428,.T.);
#576=ORIENTED_EDGE('',*,*,#432,.T.);
#577=ORIENTED_EDGE('',*,*,#443,.F.);
#578=ORIENTED_EDGE('',*,*,#421,.T.);
#579=ORIENTED_EDGE('',*,*,#438,.T.);
#580=ORIENTED_EDGE('',*,*,#440,.F.);
#581=ORIENTED_EDGE('',*,*,#444,.F.);
#582=ORIENTED_EDGE('',*,*,#441,.T.);
#583=ORIENTED_EDGE('',*,*,#412,.F.);
#584=ORIENTED_EDGE('',*,*,#417,.F.);
#585=ORIENTED_EDGE('',*,*,#445,.F.);
#586=ORIENTED_EDGE('',*,*,#446,.T.);
#587=ORIENTED_EDGE('',*,*,#389,.T.);
#588=ORIENTED_EDGE('',*,*,#446,.F.);
#589=ORIENTED_EDGE('',*,*,#447,.F.);
#590=ORIENTED_EDGE('',*,*,#448,.T.);
#591=ORIENTED_EDGE('',*,*,#394,.T.);
#592=ORIENTED_EDGE('',*,*,#448,.F.);
#593=ORIENTED_EDGE('',*,*,#449,.T.);
#594=ORIENTED_EDGE('',*,*,#450,.T.);
#595=ORIENTED_EDGE('',*,*,#451,.F.);
#596=ORIENTED_EDGE('',*,*,#452,.F.);
#597=ORIENTED_EDGE('',*,*,#453,.T.);
#598=ORIENTED_EDGE('',*,*,#452,.T.);
#599=ORIENTED_EDGE('',*,*,#454,.F.);
#600=ORIENTED_EDGE('',*,*,#455,.F.);
#601=ORIENTED_EDGE('',*,*,#445,.T.);
#602=ORIENTED_EDGE('',*,*,#447,.T.);
#603=ORIENTED_EDGE('',*,*,#456,.T.);
#604=ORIENTED_EDGE('',*,*,#455,.T.);
#605=ORIENTED_EDGE('',*,*,#457,.F.);
#606=ORIENTED_EDGE('',*,*,#458,.F.);
#607=ORIENTED_EDGE('',*,*,#459,.T.);
#608=ORIENTED_EDGE('',*,*,#458,.T.);
#609=ORIENTED_EDGE('',*,*,#460,.F.);
#610=ORIENTED_EDGE('',*,*,#450,.F.);
#611=ORIENTED_EDGE('',*,*,#400,.T.);
#612=ORIENTED_EDGE('',*,*,#402,.T.);
#613=ORIENTED_EDGE('',*,*,#460,.T.);
#614=ORIENTED_EDGE('',*,*,#457,.T.);
#615=ORIENTED_EDGE('',*,*,#454,.T.);
#616=ORIENTED_EDGE('',*,*,#451,.T.);
#617=ORIENTED_EDGE('',*,*,#442,.T.);
#618=ORIENTED_EDGE('',*,*,#444,.T.);
#619=ORIENTED_EDGE('',*,*,#439,.T.);
#620=ORIENTED_EDGE('',*,*,#406,.T.);
#621=ORIENTED_EDGE('',*,*,#422,.T.);
#622=ORIENTED_EDGE('',*,*,#443,.T.);
#623=ORIENTED_EDGE('',*,*,#416,.T.);
#624=ORIENTED_EDGE('',*,*,#407,.T.);
#625=ORIENTED_EDGE('',*,*,#459,.F.);
#626=ORIENTED_EDGE('',*,*,#449,.F.);
#627=ORIENTED_EDGE('',*,*,#453,.F.);
#628=ORIENTED_EDGE('',*,*,#456,.F.);
#629=PLANE('',#709);
#630=PLANE('',#710);
#631=PLANE('',#711);
#632=PLANE('',#712);
#633=PLANE('',#713);
#634=PLANE('',#718);
#635=PLANE('',#720);
#636=PLANE('',#725);
#637=PLANE('',#731);
#638=PLANE('',#732);
#639=PLANE('',#733);
#640=PLANE('',#736);
#641=PLANE('',#739);
#642=PLANE('',#754);
#643=PLANE('',#755);
#644=PLANE('',#756);
#645=PLANE('',#757);
#646=PLANE('',#762);
#647=PLANE('',#763);
#648=PLANE('',#764);
#649=PLANE('',#765);
#650=PLANE('',#766);
#651=PLANE('',#767);
#652=ADVANCED_FACE('',(#108),#629,.F.);
#653=ADVANCED_FACE('',(#109),#630,.F.);
#654=ADVANCED_FACE('',(#110),#631,.F.);
#655=ADVANCED_FACE('',(#111),#632,.F.);
#656=ADVANCED_FACE('',(#112,#55),#633,.F.);
#657=ADVANCED_FACE('',(#113),#43,.F.);
#658=ADVANCED_FACE('',(#114,#56),#634,.T.);
#659=ADVANCED_FACE('',(#115,#57),#635,.F.);
#660=ADVANCED_FACE('',(#116),#44,.F.);
#661=ADVANCED_FACE('',(#117,#58),#636,.T.);
#662=ADVANCED_FACE('',(#118),#45,.F.);
#663=ADVANCED_FACE('',(#119),#46,.F.);
#664=ADVANCED_FACE('',(#120,#59),#637,.T.);
#665=ADVANCED_FACE('',(#121,#60),#638,.T.);
#666=ADVANCED_FACE('',(#122,#61,#62),#639,.T.);
#667=ADVANCED_FACE('',(#123,#63,#64),#640,.T.);
#668=ADVANCED_FACE('',(#124,#65,#66),#641,.T.);
#669=ADVANCED_FACE('',(#125),#47,.F.);
#670=ADVANCED_FACE('',(#126),#48,.F.);
#671=ADVANCED_FACE('',(#127),#49,.F.);
#672=ADVANCED_FACE('',(#128),#50,.F.);
#673=ADVANCED_FACE('',(#129),#51,.F.);
#674=ADVANCED_FACE('',(#130),#52,.F.);
#675=ADVANCED_FACE('',(#131,#67,#68),#642,.F.);
#676=ADVANCED_FACE('',(#132,#69,#70),#643,.T.);
#677=ADVANCED_FACE('',(#133,#71,#72),#644,.T.);
#678=ADVANCED_FACE('',(#134),#645,.T.);
#679=ADVANCED_FACE('',(#135),#53,.F.);
#680=ADVANCED_FACE('',(#136),#54,.F.);
#681=ADVANCED_FACE('',(#137),#646,.T.);
#682=ADVANCED_FACE('',(#138,#73,#74),#647,.T.);
#683=ADVANCED_FACE('',(#139),#648,.T.);
#684=ADVANCED_FACE('',(#140,#75,#76),#649,.T.);
#685=ADVANCED_FACE('',(#141,#77),#650,.T.);
#686=ADVANCED_FACE('',(#142),#651,.F.);
#687=CLOSED_SHELL('',(#652,#653,#654,#655,#656,#657,#658,#659,#660,#661,
#662,#663,#664,#665,#666,#667,#668,#669,#670,#671,#672,#673,#674,#675,#676,
#677,#678,#679,#680,#681,#682,#683,#684,#685,#686));
#688=DERIVED_UNIT_ELEMENT(#690,1.);
#689=DERIVED_UNIT_ELEMENT(#1182,-3.);
#690=(
CONVERSION_BASED_UNIT('gram',#692)
MASS_UNIT()
NAMED_UNIT(#1179)
);
#691=(
MASS_UNIT()
NAMED_UNIT(*)
SI_UNIT(.KILO.,.GRAM.)
);
#692=MASS_MEASURE_WITH_UNIT(MASS_MEASURE(0.001),#691);
#693=DERIVED_UNIT((#688,#689));
#694=MEASURE_REPRESENTATION_ITEM('density measure',
POSITIVE_RATIO_MEASURE(1.),#693);
#695=PROPERTY_DEFINITION_REPRESENTATION(#700,#697);
#696=PROPERTY_DEFINITION_REPRESENTATION(#701,#698);
#697=REPRESENTATION('material name',(#699),#1176);
#698=REPRESENTATION('density',(#694),#1176);
#699=DESCRIPTIVE_REPRESENTATION_ITEM('Generic','Generic');
#700=PROPERTY_DEFINITION('material property','material name',#1190);
#701=PROPERTY_DEFINITION('material property','density of part',#1190);
#702=DATE_TIME_ROLE('creation_date');
#703=CC_DESIGN_DATE_AND_TIME_ASSIGNMENT(#704,#702,(#1190));
#704=DATE_AND_TIME(#705,#706);
#705=CALENDAR_DATE(2026,18,6);
#706=LOCAL_TIME(0,0,0.,#707);
#707=COORDINATED_UNIVERSAL_TIME_OFFSET(0,0,.BEHIND.);
#708=AXIS2_PLACEMENT_3D('',#966,#774,#775);
#709=AXIS2_PLACEMENT_3D('',#967,#776,#777);
#710=AXIS2_PLACEMENT_3D('',#976,#782,#783);
#711=AXIS2_PLACEMENT_3D('',#982,#787,#788);
#712=AXIS2_PLACEMENT_3D('',#988,#792,#793);
#713=AXIS2_PLACEMENT_3D('',#991,#796,#797);
#714=AXIS2_PLACEMENT_3D('',#993,#798,#799);
#715=AXIS2_PLACEMENT_3D('',#995,#800,#801);
#716=AXIS2_PLACEMENT_3D('',#996,#802,#803);
#717=AXIS2_PLACEMENT_3D('',#998,#804,#805);
#718=AXIS2_PLACEMENT_3D('',#1000,#807,#808);
#719=AXIS2_PLACEMENT_3D('',#1002,#809,#810);
#720=AXIS2_PLACEMENT_3D('',#1003,#811,#812);
#721=AXIS2_PLACEMENT_3D('',#1005,#813,#814);
#722=AXIS2_PLACEMENT_3D('',#1007,#815,#816);
#723=AXIS2_PLACEMENT_3D('',#1008,#817,#818);
#724=AXIS2_PLACEMENT_3D('',#1010,#819,#820);
#725=AXIS2_PLACEMENT_3D('',#1012,#822,#823);
#726=AXIS2_PLACEMENT_3D('',#1014,#824,#825);
#727=AXIS2_PLACEMENT_3D('',#1015,#826,#827);
#728=AXIS2_PLACEMENT_3D('',#1018,#829,#830);
#729=AXIS2_PLACEMENT_3D('',#1019,#831,#832);
#730=AXIS2_PLACEMENT_3D('',#1022,#834,#835);
#731=AXIS2_PLACEMENT_3D('',#1023,#836,#837);
#732=AXIS2_PLACEMENT_3D('',#1032,#842,#843);
#733=AXIS2_PLACEMENT_3D('',#1041,#848,#849);
#734=AXIS2_PLACEMENT_3D('',#1048,#853,#854);
#735=AXIS2_PLACEMENT_3D('',#1050,#855,#856);
#736=AXIS2_PLACEMENT_3D('',#1051,#857,#858);
#737=AXIS2_PLACEMENT_3D('',#1056,#861,#862);
#738=AXIS2_PLACEMENT_3D('',#1058,#863,#864);
#739=AXIS2_PLACEMENT_3D('',#1059,#865,#866);
#740=AXIS2_PLACEMENT_3D('',#1066,#870,#871);
#741=AXIS2_PLACEMENT_3D('',#1068,#872,#873);
#742=AXIS2_PLACEMENT_3D('',#1069,#874,#875);
#743=AXIS2_PLACEMENT_3D('',#1071,#877,#878);
#744=AXIS2_PLACEMENT_3D('',#1073,#879,#880);
#745=AXIS2_PLACEMENT_3D('',#1076,#882,#883);
#746=AXIS2_PLACEMENT_3D('',#1077,#884,#885);
#747=AXIS2_PLACEMENT_3D('',#1079,#887,#888);
#748=AXIS2_PLACEMENT_3D('',#1081,#889,#890);
#749=AXIS2_PLACEMENT_3D('',#1084,#892,#893);
#750=AXIS2_PLACEMENT_3D('',#1085,#894,#895);
#751=AXIS2_PLACEMENT_3D('',#1088,#897,#898);
#752=AXIS2_PLACEMENT_3D('',#1089,#899,#900);
#753=AXIS2_PLACEMENT_3D('',#1092,#902,#903);
#754=AXIS2_PLACEMENT_3D('',#1093,#904,#905);
#755=AXIS2_PLACEMENT_3D('',#1097,#908,#909);
#756=AXIS2_PLACEMENT_3D('',#1101,#912,#913);
#757=AXIS2_PLACEMENT_3D('',#1105,#916,#917);
#758=AXIS2_PLACEMENT_3D('',#1108,#920,#921);
#759=AXIS2_PLACEMENT_3D('',#1110,#922,#923);
#760=AXIS2_PLACEMENT_3D('',#1112,#925,#926);
#761=AXIS2_PLACEMENT_3D('',#1114,#927,#928);
#762=AXIS2_PLACEMENT_3D('',#1116,#930,#931);
#763=AXIS2_PLACEMENT_3D('',#1125,#936,#937);
#764=AXIS2_PLACEMENT_3D('',#1131,#941,#942);
#765=AXIS2_PLACEMENT_3D('',#1137,#946,#947);
#766=AXIS2_PLACEMENT_3D('',#1140,#950,#951);
#767=AXIS2_PLACEMENT_3D('',#1141,#952,#953);
#768=AXIS2_PLACEMENT_3D('',#1167,#954,#955);
#769=AXIS2_PLACEMENT_3D('',#1168,#956,#957);
#770=AXIS2_PLACEMENT_3D('',#1169,#958,#959);
#771=AXIS2_PLACEMENT_3D('',#1170,#960,#961);
#772=AXIS2_PLACEMENT_3D('',#1171,#962,#963);
#773=AXIS2_PLACEMENT_3D('',#1172,#964,#965);
#774=DIRECTION('axis',(0.,0.,1.));
#775=DIRECTION('refdir',(1.,0.,0.));
#776=DIRECTION('center_axis',(0.,0.,1.));
#777=DIRECTION('ref_axis',(-1.,0.,0.));
#778=DIRECTION('',(1.,0.,0.));
#779=DIRECTION('',(0.,-1.,0.));
#780=DIRECTION('',(-1.,0.,0.));
#781=DIRECTION('',(0.,-1.,0.));
#782=DIRECTION('center_axis',(1.,0.,0.));
#783=DIRECTION('ref_axis',(0.,0.,1.));
#784=DIRECTION('',(0.,0.,-1.));
#785=DIRECTION('',(0.,0.,1.));
#786=DIRECTION('',(0.,-1.,0.));
#787=DIRECTION('center_axis',(0.,0.,-1.));
#788=DIRECTION('ref_axis',(1.,0.,0.));
#789=DIRECTION('',(-1.,0.,0.));
#790=DIRECTION('',(1.,0.,0.));
#791=DIRECTION('',(0.,-1.,0.));
#792=DIRECTION('center_axis',(-1.,0.,0.));
#793=DIRECTION('ref_axis',(0.,0.,-1.));
#794=DIRECTION('',(0.,0.,1.));
#795=DIRECTION('',(0.,0.,-1.));
#796=DIRECTION('center_axis',(0.,-1.,-3.16688190057986E-16));
#797=DIRECTION('ref_axis',(0.,3.16688190057986E-16,-1.));
#798=DIRECTION('center_axis',(0.,-1.,-3.16688190057986E-16));
#799=DIRECTION('ref_axis',(1.,0.,0.));
#800=DIRECTION('center_axis',(0.,-1.,-3.16688190057986E-16));
#801=DIRECTION('ref_axis',(-1.,0.,0.));
#802=DIRECTION('center_axis',(0.,-1.,-2.22044604925031E-16));
#803=DIRECTION('ref_axis',(-1.,0.,0.));
#804=DIRECTION('center_axis',(0.,1.,3.16688190057986E-16));
#805=DIRECTION('ref_axis',(-1.,0.,0.));
#806=DIRECTION('',(0.,1.,2.22044604925031E-16));
#807=DIRECTION('center_axis',(0.,-1.,-3.16688190057986E-16));
#808=DIRECTION('ref_axis',(0.,3.16688190057986E-16,-1.));
#809=DIRECTION('center_axis',(0.,1.,3.16688190057986E-16));
#810=DIRECTION('ref_axis',(1.,0.,0.));
#811=DIRECTION('center_axis',(0.,-1.,-3.16688190057986E-16));
#812=DIRECTION('ref_axis',(0.,3.16688190057986E-16,-1.));
#813=DIRECTION('center_axis',(0.,-1.,-3.16688190057986E-16));
#814=DIRECTION('ref_axis',(1.,0.,0.));
#815=DIRECTION('center_axis',(0.,-1.,-3.16688190057986E-16));
#816=DIRECTION('ref_axis',(-1.,0.,0.));
#817=DIRECTION('center_axis',(0.,-1.,0.));
#818=DIRECTION('ref_axis',(-1.,0.,0.));
#819=DIRECTION('center_axis',(0.,1.,3.16688190057986E-16));
#820=DIRECTION('ref_axis',(-1.,0.,0.));
#821=DIRECTION('',(0.,1.,0.));
#822=DIRECTION('center_axis',(0.,-1.,-3.16688190057986E-16));
#823=DIRECTION('ref_axis',(0.,3.16688190057986E-16,-1.));
#824=DIRECTION('center_axis',(0.,1.,3.16688190057986E-16));
#825=DIRECTION('ref_axis',(1.,0.,0.));
#826=DIRECTION('center_axis',(0.,-1.,-4.23279997799216E-16));
#827=DIRECTION('ref_axis',(1.,0.,0.));
#828=DIRECTION('',(0.,-1.,-4.23279997799216E-16));
#829=DIRECTION('center_axis',(0.,1.,3.16688190057986E-16));
#830=DIRECTION('ref_axis',(1.,0.,0.));
#831=DIRECTION('center_axis',(0.,-1.,-3.62811426685043E-16));
#832=DIRECTION('ref_axis',(1.,0.,0.));
#833=DIRECTION('',(0.,-1.,-3.62811426685043E-16));
#834=DIRECTION('center_axis',(0.,1.,3.16688190057986E-16));
#835=DIRECTION('ref_axis',(1.,0.,0.));
#836=DIRECTION('center_axis',(0.,1.,0.));
#837=DIRECTION('ref_axis',(0.,0.,1.));
#838=DIRECTION('',(-1.,0.,0.));
#839=DIRECTION('',(0.,0.,1.));
#840=DIRECTION('',(1.,0.,0.));
#841=DIRECTION('',(0.,0.,-1.));
#842=DIRECTION('center_axis',(0.,-1.,0.));
#843=DIRECTION('ref_axis',(0.,0.,-1.));
#844=DIRECTION('',(0.,0.,1.));
#845=DIRECTION('',(1.,0.,0.));
#846=DIRECTION('',(0.,0.,1.));
#847=DIRECTION('',(-1.,0.,0.));
#848=DIRECTION('center_axis',(1.,0.,0.));
#849=DIRECTION('ref_axis',(0.,0.,-1.));
#850=DIRECTION('',(0.,1.,1.75316459078972E-16));
#851=DIRECTION('',(0.,-2.66453525910038E-16,1.));
#852=DIRECTION('',(0.,-1.,0.));
#853=DIRECTION('center_axis',(-1.,0.,0.));
#854=DIRECTION('ref_axis',(0.,0.,-1.));
#855=DIRECTION('center_axis',(-1.,0.,0.));
#856=DIRECTION('ref_axis',(0.,0.,-1.));
#857=DIRECTION('center_axis',(0.,1.75316459078972E-16,-1.));
#858=DIRECTION('ref_axis',(0.,1.,1.75316459078972E-16));
#859=DIRECTION('',(0.,-1.,-1.75316459078972E-16));
#860=DIRECTION('',(1.,0.,0.));
#861=DIRECTION('center_axis',(0.,-1.75316459078972E-16,1.));
#862=DIRECTION('ref_axis',(-1.,0.,0.));
#863=DIRECTION('center_axis',(0.,-1.75316459078972E-16,1.));
#864=DIRECTION('ref_axis',(-1.,0.,0.));
#865=DIRECTION('center_axis',(0.,7.01265836315886E-16,1.));
#866=DIRECTION('ref_axis',(0.,-1.,7.01265836315886E-16));
#867=DIRECTION('',(0.,-1.,7.01265836315886E-16));
#868=DIRECTION('',(1.,0.,0.));
#869=DIRECTION('',(0.,1.,-7.01265836315886E-16));
#870=DIRECTION('center_axis',(0.,-7.01265836315886E-16,-1.));
#871=DIRECTION('ref_axis',(-1.,0.,0.));
#872=DIRECTION('center_axis',(0.,-7.01265836315886E-16,-1.));
#873=DIRECTION('ref_axis',(-1.,0.,0.));
#874=DIRECTION('center_axis',(0.,-1.75575290465162E-16,1.));
#875=DIRECTION('ref_axis',(-1.,0.,0.));
#876=DIRECTION('',(0.,-1.75575290465162E-16,1.));
#877=DIRECTION('center_axis',(0.,-1.75575290465162E-16,1.));
#878=DIRECTION('ref_axis',(-1.,0.,0.));
#879=DIRECTION('center_axis',(0.,-7.01265836315886E-16,1.));
#880=DIRECTION('ref_axis',(-1.,0.,0.));
#881=DIRECTION('',(0.,-1.75575290465162E-16,1.));
#882=DIRECTION('center_axis',(0.,0.,-1.));
#883=DIRECTION('ref_axis',(-1.,0.,0.));
#884=DIRECTION('center_axis',(0.,-1.75575290465162E-16,1.));
#885=DIRECTION('ref_axis',(-1.,0.,0.));
#886=DIRECTION('',(0.,-1.75575290465162E-16,1.));
#887=DIRECTION('center_axis',(0.,-1.75575290465162E-16,1.));
#888=DIRECTION('ref_axis',(-1.,0.,0.));
#889=DIRECTION('center_axis',(0.,-7.01265836315886E-16,1.));
#890=DIRECTION('ref_axis',(-1.,0.,0.));
#891=DIRECTION('',(0.,-1.75575290465162E-16,1.));
#892=DIRECTION('center_axis',(0.,0.,-1.));
#893=DIRECTION('ref_axis',(-1.,0.,0.));
#894=DIRECTION('center_axis',(-1.,0.,0.));
#895=DIRECTION('ref_axis',(0.,0.,-1.));
#896=DIRECTION('',(-1.,0.,0.));
#897=DIRECTION('center_axis',(1.,0.,0.));
#898=DIRECTION('ref_axis',(0.,0.,-1.));
#899=DIRECTION('center_axis',(-1.,0.,0.));
#900=DIRECTION('ref_axis',(0.,0.,-1.));
#901=DIRECTION('',(-1.,0.,0.));
#902=DIRECTION('center_axis',(1.,0.,0.));
#903=DIRECTION('ref_axis',(0.,0.,-1.));
#904=DIRECTION('center_axis',(1.,0.,0.));
#905=DIRECTION('ref_axis',(0.,0.,-1.));
#906=DIRECTION('',(0.,1.,7.01265836315886E-16));
#907=DIRECTION('',(0.,-2.66453525910038E-16,1.));
#908=DIRECTION('center_axis',(0.,7.01265836315886E-16,-1.));
#909=DIRECTION('ref_axis',(0.,1.,7.01265836315886E-16));
#910=DIRECTION('',(0.,-1.,-7.01265836315886E-16));
#911=DIRECTION('',(1.,0.,0.));
#912=DIRECTION('center_axis',(0.,0.,1.));
#913=DIRECTION('ref_axis',(0.,-1.,0.));
#914=DIRECTION('',(1.,0.,0.));
#915=DIRECTION('',(0.,1.,0.));
#916=DIRECTION('center_axis',(0.,1.,-6.34413156928661E-16));
#917=DIRECTION('ref_axis',(0.,6.34413156928661E-16,1.));
#918=DIRECTION('',(0.,-6.34413156928661E-16,-1.));
#919=DIRECTION('',(0.,6.34413156928661E-16,-1.));
#920=DIRECTION('center_axis',(0.,-1.,-4.23279997799216E-16));
#921=DIRECTION('ref_axis',(1.,0.,0.));
#922=DIRECTION('center_axis',(0.,-1.,-4.22250920077314E-16));
#923=DIRECTION('ref_axis',(1.,0.,0.));
#924=DIRECTION('',(0.,-1.,-4.23279997799216E-16));
#925=DIRECTION('center_axis',(0.,-1.,-3.62811426685043E-16));
#926=DIRECTION('ref_axis',(1.,0.,0.));
#927=DIRECTION('center_axis',(0.,-1.,-4.22250920077314E-16));
#928=DIRECTION('ref_axis',(1.,0.,0.));
#929=DIRECTION('',(0.,-1.,-3.62811426685043E-16));
#930=DIRECTION('center_axis',(0.,0.,1.));
#931=DIRECTION('ref_axis',(0.,-1.,0.));
#932=DIRECTION('',(0.,-1.,0.));
#933=DIRECTION('',(1.,0.,0.));
#934=DIRECTION('',(0.,-1.,0.));
#935=DIRECTION('',(1.,0.,0.));
#936=DIRECTION('center_axis',(0.,1.,4.22250920077314E-16));
#937=DIRECTION('ref_axis',(0.,-4.22250920077314E-16,1.));
#938=DIRECTION('',(0.,-4.22250920077314E-16,1.));
#939=DIRECTION('',(0.,-4.22250920077314E-16,1.));
#940=DIRECTION('',(1.,0.,0.));
#941=DIRECTION('center_axis',(0.,0.,-1.));
#942=DIRECTION('ref_axis',(0.,1.,0.));
#943=DIRECTION('',(0.,1.,0.));
#944=DIRECTION('',(0.,1.,0.));
#945=DIRECTION('',(1.,0.,0.));
#946=DIRECTION('center_axis',(0.,-1.,-3.16688190057986E-16));
#947=DIRECTION('ref_axis',(0.,3.16688190057986E-16,-1.));
#948=DIRECTION('',(0.,3.16688190057986E-16,-1.));
#949=DIRECTION('',(0.,3.16688190057986E-16,-1.));
#950=DIRECTION('center_axis',(1.,0.,0.));
#951=DIRECTION('ref_axis',(0.,0.,-1.));
#952=DIRECTION('center_axis',(1.,0.,0.));
#953=DIRECTION('ref_axis',(0.,0.,-1.));
#954=DIRECTION('center_axis',(-1.,0.,0.));
#955=DIRECTION('ref_axis',(0.,0.,1.));
#956=DIRECTION('center_axis',(-1.,0.,0.));
#957=DIRECTION('ref_axis',(0.,0.,1.));
#958=DIRECTION('center_axis',(-1.,0.,0.));
#959=DIRECTION('ref_axis',(0.,0.,1.));
#960=DIRECTION('center_axis',(-1.,0.,0.));
#961=DIRECTION('ref_axis',(0.,0.,1.));
#962=DIRECTION('center_axis',(-1.,0.,0.));
#963=DIRECTION('ref_axis',(0.,0.,1.));
#964=DIRECTION('center_axis',(-1.,0.,0.));
#965=DIRECTION('ref_axis',(0.,0.,1.));
#966=CARTESIAN_POINT('',(0.,0.,0.));
#967=CARTESIAN_POINT('Origin',(2.8125,-0.130956176834978,2.88262795275591));
#968=CARTESIAN_POINT('',(0.589074803149607,-0.276782948488521,2.88262795275591));
#969=CARTESIAN_POINT('',(2.8125,-0.276782948488521,2.88262795275591));
#970=CARTESIAN_POINT('',(2.2566437007874,-0.276782948488521,2.88262795275591));
#971=CARTESIAN_POINT('',(0.589074803149607,-0.130956176834978,2.88262795275591));
#972=CARTESIAN_POINT('',(0.589074803149607,-0.130956176834978,2.88262795275591));
#973=CARTESIAN_POINT('',(2.8125,-0.130956176834978,2.88262795275591));
#974=CARTESIAN_POINT('',(2.2566437007874,-0.130956176834978,2.88262795275591));
#975=CARTESIAN_POINT('',(2.8125,-0.130956176834978,2.88262795275591));
#976=CARTESIAN_POINT('Origin',(2.8125,-0.130956176834978,0.679872047244095));
#977=CARTESIAN_POINT('',(2.8125,-0.276782948488521,0.679872047244095));
#978=CARTESIAN_POINT('',(2.8125,-0.276782948488521,1.23056102362205));
#979=CARTESIAN_POINT('',(2.8125,-0.130956176834978,0.679872047244095));
#980=CARTESIAN_POINT('',(2.8125,-0.130956176834978,1.23056102362205));
#981=CARTESIAN_POINT('',(2.8125,-0.130956176834978,0.679872047244095));
#982=CARTESIAN_POINT('Origin',(0.589074803149607,-0.130956176834978,0.679872047244095));
#983=CARTESIAN_POINT('',(0.589074803149607,-0.276782948488521,0.679872047244095));
#984=CARTESIAN_POINT('',(1.14493110236221,-0.276782948488521,0.679872047244095));
#985=CARTESIAN_POINT('',(0.589074803149607,-0.130956176834978,0.679872047244095));
#986=CARTESIAN_POINT('',(1.14493110236221,-0.130956176834978,0.679872047244095));
#987=CARTESIAN_POINT('',(0.589074803149607,-0.130956176834978,0.679872047244095));
#988=CARTESIAN_POINT('Origin',(0.589074803149607,-0.130956176834978,2.88262795275591));
#989=CARTESIAN_POINT('',(0.589074803149607,-0.276782948488521,2.33193897637795));
#990=CARTESIAN_POINT('',(0.589074803149607,-0.130956176834978,2.33193897637795));
#991=CARTESIAN_POINT('Origin',(0.249999999999999,0.213193141725171,0.725000000000001));
#992=CARTESIAN_POINT('',(0.0728346456692902,0.213193141725171,0.725000000000001));
#993=CARTESIAN_POINT('Origin',(0.249999999999999,0.213193141725171,0.725000000000001));
#994=CARTESIAN_POINT('',(0.38779527559055,0.213193141725171,0.725000000000001));
#995=CARTESIAN_POINT('Origin',(0.249999999999999,0.213193141725171,0.725000000000001));
#996=CARTESIAN_POINT('Origin',(0.249999999999999,-0.180507645676404,0.725));
#997=CARTESIAN_POINT('',(0.38779527559055,-0.574208433077978,0.725));
#998=CARTESIAN_POINT('Origin',(0.249999999999999,-0.574208433077978,0.725));
#999=CARTESIAN_POINT('',(0.38779527559055,-0.180507645676404,0.725));
#1000=CARTESIAN_POINT('Origin',(0.249999999999999,-0.574208433077978,0.725));
#1001=CARTESIAN_POINT('',(0.0728346456692902,-0.574208433077978,0.725));
#1002=CARTESIAN_POINT('Origin',(0.249999999999999,-0.574208433077978,0.725));
#1003=CARTESIAN_POINT('Origin',(0.249999999999999,0.21319314172517,2.8375));
#1004=CARTESIAN_POINT('',(0.0728346456692902,0.21319314172517,2.8375));
#1005=CARTESIAN_POINT('Origin',(0.249999999999999,0.21319314172517,2.8375));
#1006=CARTESIAN_POINT('',(0.38779527559055,0.21319314172517,2.8375));
#1007=CARTESIAN_POINT('Origin',(0.249999999999999,0.21319314172517,2.8375));
#1008=CARTESIAN_POINT('Origin',(0.249999999999999,-0.180507645676404,2.8375));
#1009=CARTESIAN_POINT('',(0.38779527559055,-0.574208433077979,2.8375));
#1010=CARTESIAN_POINT('Origin',(0.249999999999999,-0.574208433077979,2.8375));
#1011=CARTESIAN_POINT('',(0.38779527559055,-0.180507645676404,2.8375));
#1012=CARTESIAN_POINT('Origin',(0.249999999999999,-0.574208433077979,2.8375));
#1013=CARTESIAN_POINT('',(0.0728346456692902,-0.574208433077979,2.8375));
#1014=CARTESIAN_POINT('Origin',(0.249999999999999,-0.574208433077979,2.8375));
#1015=CARTESIAN_POINT('Origin',(0.249999999999999,0.783289295296407,0.725000000000001));
#1016=CARTESIAN_POINT('',(0.0728346456692902,-1.14430458664921,0.725));
#1017=CARTESIAN_POINT('',(0.0728346456692902,0.783289295296407,0.725000000000001));
#1018=CARTESIAN_POINT('Origin',(0.249999999999999,-1.14430458664921,0.725));
#1019=CARTESIAN_POINT('Origin',(0.249999999999999,0.783289295296407,2.8375));
#1020=CARTESIAN_POINT('',(0.0728346456692902,-1.14430458664921,2.8375));
#1021=CARTESIAN_POINT('',(0.0728346456692902,0.783289295296407,2.8375));
#1022=CARTESIAN_POINT('Origin',(0.249999999999999,-1.14430458664921,2.8375));
#1023=CARTESIAN_POINT('Origin',(1.7007874015748,-0.130956176834978,1.78125));
#1024=CARTESIAN_POINT('',(2.90157480314961,-0.130956176834978,2.9820374015748));
#1025=CARTESIAN_POINT('',(0.5,-0.130956176834978,2.9820374015748));
#1026=CARTESIAN_POINT('',(1.1003937007874,-0.130956176834978,2.9820374015748));
#1027=CARTESIAN_POINT('',(2.90157480314961,-0.130956176834978,0.580462598425198));
#1028=CARTESIAN_POINT('',(2.90157480314961,-0.130956176834978,1.78125));
#1029=CARTESIAN_POINT('',(0.5,-0.130956176834978,0.580462598425198));
#1030=CARTESIAN_POINT('',(1.1003937007874,-0.130956176834978,0.580462598425198));
#1031=CARTESIAN_POINT('',(0.5,-0.130956176834978,1.78125));
#1032=CARTESIAN_POINT('Origin',(1.7007874015748,-0.276782948488521,1.78125));
#1033=CARTESIAN_POINT('',(0.5,-0.276782948488521,0.304872047244095));
#1034=CARTESIAN_POINT('',(0.5,-0.276782948488521,3.25762795275591));
#1035=CARTESIAN_POINT('',(0.5,-0.276782948488521,1.78125));
#1036=CARTESIAN_POINT('',(3.17716535433071,-0.276782948488521,0.304872047244095));
#1037=CARTESIAN_POINT('',(0.5,-0.276782948488521,0.304872047244095));
#1038=CARTESIAN_POINT('',(3.17716535433071,-0.276782948488521,3.25762795275591));
#1039=CARTESIAN_POINT('',(3.17716535433071,-0.276782948488521,0.304872047244095));
#1040=CARTESIAN_POINT('',(3.17716535433071,-0.276782948488521,3.25762795275591));
#1041=CARTESIAN_POINT('Origin',(3.17716535433071,0.0325351596244153,1.78125));
#1042=CARTESIAN_POINT('',(3.17716535433071,0.281853267737352,0.304872047244095));
#1043=CARTESIAN_POINT('',(3.17716535433071,-0.216782948488521,0.304872047244095));
#1044=CARTESIAN_POINT('',(3.17716535433071,0.281853267737351,3.25762795275591));
#1045=CARTESIAN_POINT('',(3.17716535433071,0.281853267737352,0.304872047244095));
#1046=CARTESIAN_POINT('',(3.17716535433071,0.281853267737351,3.25762795275591));
#1047=CARTESIAN_POINT('',(3.17716535433071,0.0325351596244156,2.45054133858268));
#1048=CARTESIAN_POINT('Origin',(3.17716535433071,0.0325351596244155,2.37180118110236));
#1049=CARTESIAN_POINT('',(3.17716535433071,0.0325351596244156,1.26943897637795));
#1050=CARTESIAN_POINT('Origin',(3.17716535433071,0.0325351596244155,1.19069881889764));
#1051=CARTESIAN_POINT('Origin',(0.5,-0.216782948488521,0.304872047244095));
#1052=CARTESIAN_POINT('',(0.5,0.281853267737351,0.304872047244095));
#1053=CARTESIAN_POINT('',(0.5,-0.198645297082462,0.304872047244095));
#1054=CARTESIAN_POINT('',(0.5,0.281853267737351,0.304872047244095));
#1055=CARTESIAN_POINT('',(2.37007874015748,0.0325351596244157,0.304872047244095));
#1056=CARTESIAN_POINT('Origin',(2.29133858267717,0.0325351596244157,0.304872047244095));
#1057=CARTESIAN_POINT('',(1.18897637795276,0.0325351596244157,0.304872047244095));
#1058=CARTESIAN_POINT('Origin',(1.11023622047244,0.0325351596244157,0.304872047244095));
#1059=CARTESIAN_POINT('Origin',(0.5,0.281853267737351,0.580462598425197));
#1060=CARTESIAN_POINT('',(2.90157480314961,0.281853267737351,0.580462598425197));
#1061=CARTESIAN_POINT('',(2.90157480314961,0.281853267737351,0.580462598425197));
#1062=CARTESIAN_POINT('',(0.5,0.281853267737351,0.580462598425197));
#1063=CARTESIAN_POINT('',(0.5,0.281853267737351,0.580462598425197));
#1064=CARTESIAN_POINT('',(0.5,0.0506728110304735,0.580462598425197));
#1065=CARTESIAN_POINT('',(2.37007874015748,0.0325351596244157,0.580462598425197));
#1066=CARTESIAN_POINT('Origin',(2.29133858267717,0.0325351596244157,0.580462598425197));
#1067=CARTESIAN_POINT('',(1.18897637795276,0.0325351596244157,0.580462598425197));
#1068=CARTESIAN_POINT('Origin',(1.11023622047244,0.0325351596244157,0.580462598425197));
#1069=CARTESIAN_POINT('Origin',(1.11023622047244,0.0325351596244157,0.304872047244095));
#1070=CARTESIAN_POINT('',(1.18897637795276,0.0325351596244157,0.304872047244095));
#1071=CARTESIAN_POINT('Origin',(1.11023622047244,0.0325351596244157,0.304872047244095));
#1072=CARTESIAN_POINT('',(1.18897637795276,0.0325351596244153,2.9820374015748));
#1073=CARTESIAN_POINT('Origin',(1.11023622047244,0.0325351596244152,2.9820374015748));
#1074=CARTESIAN_POINT('',(1.18897637795276,0.0325351596244152,3.25762795275591));
#1075=CARTESIAN_POINT('',(1.18897637795276,0.0325351596244157,0.304872047244095));
#1076=CARTESIAN_POINT('Origin',(1.11023622047244,0.0325351596244152,3.25762795275591));
#1077=CARTESIAN_POINT('Origin',(2.29133858267717,0.0325351596244157,0.304872047244095));
#1078=CARTESIAN_POINT('',(2.37007874015748,0.0325351596244157,0.304872047244095));
#1079=CARTESIAN_POINT('Origin',(2.29133858267717,0.0325351596244157,0.304872047244095));
#1080=CARTESIAN_POINT('',(2.37007874015748,0.0325351596244153,2.9820374015748));
#1081=CARTESIAN_POINT('Origin',(2.29133858267717,0.0325351596244152,2.9820374015748));
#1082=CARTESIAN_POINT('',(2.37007874015748,0.0325351596244152,3.25762795275591));
#1083=CARTESIAN_POINT('',(2.37007874015748,0.0325351596244157,0.304872047244095));
#1084=CARTESIAN_POINT('Origin',(2.29133858267717,0.0325351596244152,3.25762795275591));
#1085=CARTESIAN_POINT('Origin',(3.17716535433071,0.0325351596244155,1.19069881889764));
#1086=CARTESIAN_POINT('',(2.90157480314961,0.0325351596244156,1.26943897637795));
#1087=CARTESIAN_POINT('',(3.17716535433071,0.0325351596244156,1.26943897637795));
#1088=CARTESIAN_POINT('Origin',(2.90157480314961,0.0325351596244155,1.19069881889764));
#1089=CARTESIAN_POINT('Origin',(3.17716535433071,0.0325351596244155,2.37180118110236));
#1090=CARTESIAN_POINT('',(2.90157480314961,0.0325351596244156,2.45054133858268));
#1091=CARTESIAN_POINT('',(3.17716535433071,0.0325351596244156,2.45054133858268));
#1092=CARTESIAN_POINT('Origin',(2.90157480314961,0.0325351596244155,2.37180118110236));
#1093=CARTESIAN_POINT('Origin',(2.90157480314961,0.0325351596244153,1.78125));
#1094=CARTESIAN_POINT('',(2.90157480314961,0.281853267737351,2.9820374015748));
#1095=CARTESIAN_POINT('',(2.90157480314961,-0.216782948488521,2.9820374015748));
#1096=CARTESIAN_POINT('',(2.90157480314961,0.281853267737352,0.304872047244095));
#1097=CARTESIAN_POINT('Origin',(0.5,-0.216782948488521,2.9820374015748));
#1098=CARTESIAN_POINT('',(0.5,0.281853267737351,2.9820374015748));
#1099=CARTESIAN_POINT('',(0.5,-0.198645297082463,2.9820374015748));
#1100=CARTESIAN_POINT('',(0.5,0.281853267737351,2.9820374015748));
#1101=CARTESIAN_POINT('Origin',(0.5,0.281853267737351,3.25762795275591));
#1102=CARTESIAN_POINT('',(0.5,0.281853267737351,3.25762795275591));
#1103=CARTESIAN_POINT('',(0.5,0.281853267737351,3.25762795275591));
#1104=CARTESIAN_POINT('',(0.5,0.0506728110304738,3.25762795275591));
#1105=CARTESIAN_POINT('Origin',(0.5,0.281853267737351,0.304872047244095));
#1106=CARTESIAN_POINT('',(0.5,0.281853267737352,1.04306102362205));
#1107=CARTESIAN_POINT('',(0.5,0.281853267737352,2.3816437007874));
#1108=CARTESIAN_POINT('Origin',(0.249999999999999,0.783289295296407,0.725000000000001));
#1109=CARTESIAN_POINT('',(0.0728346456692902,0.783289295296407,0.725000000000001));
#1110=CARTESIAN_POINT('Origin',(0.249999999999999,0.783289295296407,0.725000000000001));
#1111=CARTESIAN_POINT('',(0.0728346456692902,0.783289295296407,0.725000000000001));
#1112=CARTESIAN_POINT('Origin',(0.249999999999999,0.783289295296407,2.8375));
#1113=CARTESIAN_POINT('',(0.0728346456692902,0.783289295296407,2.8375));
#1114=CARTESIAN_POINT('Origin',(0.249999999999999,0.783289295296407,2.8375));
#1115=CARTESIAN_POINT('',(0.0728346456692902,0.783289295296407,2.8375));
#1116=CARTESIAN_POINT('Origin',(0.,0.783289295296406,3.4375));
#1117=CARTESIAN_POINT('',(0.,0.783289295296406,3.4375));
#1118=CARTESIAN_POINT('',(0.,-1.14430458664922,3.4375));
#1119=CARTESIAN_POINT('',(0.,0.783289295296406,3.4375));
#1120=CARTESIAN_POINT('',(0.5,-1.14430458664922,3.4375));
#1121=CARTESIAN_POINT('',(0.,-1.14430458664922,3.4375));
#1122=CARTESIAN_POINT('',(0.5,0.783289295296406,3.4375));
#1123=CARTESIAN_POINT('',(0.5,0.783289295296406,3.4375));
#1124=CARTESIAN_POINT('',(0.,0.783289295296406,3.4375));
#1125=CARTESIAN_POINT('Origin',(0.,0.783289295296408,0.125));
#1126=CARTESIAN_POINT('',(0.,0.783289295296408,0.125));
#1127=CARTESIAN_POINT('',(0.,0.783289295296408,0.125));
#1128=CARTESIAN_POINT('',(0.5,0.783289295296408,0.125));
#1129=CARTESIAN_POINT('',(0.5,0.783289295296408,0.125));
#1130=CARTESIAN_POINT('',(0.,0.783289295296408,0.125));
#1131=CARTESIAN_POINT('Origin',(0.,-1.14430458664921,0.125));
#1132=CARTESIAN_POINT('',(0.,-1.14430458664921,0.125));
#1133=CARTESIAN_POINT('',(0.,-1.14430458664921,0.125));
#1134=CARTESIAN_POINT('',(0.5,-1.14430458664921,0.125));
#1135=CARTESIAN_POINT('',(0.5,-1.14430458664921,0.125));
#1136=CARTESIAN_POINT('',(0.,-1.14430458664921,0.125));
#1137=CARTESIAN_POINT('Origin',(0.,-1.14430458664922,3.4375));
#1138=CARTESIAN_POINT('',(0.,-1.14430458664922,3.4375));
#1139=CARTESIAN_POINT('',(0.5,-1.14430458664922,3.4375));
#1140=CARTESIAN_POINT('Origin',(0.5,-0.180507645676404,1.78125));
#1141=CARTESIAN_POINT('Origin',(0.,-0.180507645676404,1.78125));
#1142=CARTESIAN_POINT('polyline point',(0.,-1.14430458664922,3.4375));
#1143=CARTESIAN_POINT('polyline point',(0.,-1.14430458664921,0.125));
#1144=CARTESIAN_POINT('polyline point',(0.,0.783289295296406,3.4375));
#1145=CARTESIAN_POINT('polyline point',(0.,-1.14430458664922,3.4375));
#1146=CARTESIAN_POINT('polyline point',(0.,0.783289295296408,0.125));
#1147=CARTESIAN_POINT('polyline point',(0.,0.783289295296406,3.4375));
#1148=CARTESIAN_POINT('polyline point',(0.,-1.14430458664921,0.125));
#1149=CARTESIAN_POINT('polyline point',(0.,0.783289295296408,0.125));
#1150=CARTESIAN_POINT('polyline point',(0.,-0.180507645676403,0.125));
#1151=CARTESIAN_POINT('polyline point',(0.,-0.180507645676403,3.4375));
#1152=CARTESIAN_POINT('polyline point',(0.,-0.68934296969241,0.125));
#1153=CARTESIAN_POINT('polyline point',(0.,-0.68934296969241,0.375));
#1154=CARTESIAN_POINT('polyline point',(0.,-0.68934296969241,0.375));
#1155=CARTESIAN_POINT('polyline point',(0.,0.328327678339604,0.375));
#1156=CARTESIAN_POINT('polyline point',(0.,0.328327678339604,0.375));
#1157=CARTESIAN_POINT('polyline point',(0.,0.328327678339603,0.125));
#1158=CARTESIAN_POINT('polyline point',(0.,-0.180507645676403,1.78125));
#1159=CARTESIAN_POINT('polyline point',(0.,0.783289295296408,1.78125));
#1160=CARTESIAN_POINT('polyline point',(0.,0.328327678339604,3.1875));
#1161=CARTESIAN_POINT('polyline point',(0.,0.328327678339603,3.4375));
#1162=CARTESIAN_POINT('polyline point',(0.,-0.68934296969241,3.1875));
#1163=CARTESIAN_POINT('polyline point',(0.,0.328327678339604,3.1875));
#1164=CARTESIAN_POINT('polyline point',(0.,-0.68934296969241,3.4375));
#1165=CARTESIAN_POINT('polyline point',(0.,-0.68934296969241,3.1875));
#1166=CARTESIAN_POINT('',(0.,0.,0.));
#1167=CARTESIAN_POINT('Origin',(0.,-0.16877626889795,2.6336122047244));
#1168=CARTESIAN_POINT('Origin',(0.,-0.16877626889795,2.6336122047244));
#1169=CARTESIAN_POINT('Origin',(0.,-0.168776268897719,0.92888779527588));
#1170=CARTESIAN_POINT('Origin',(0.,-0.168776268897719,0.92888779527588));
#1171=CARTESIAN_POINT('Origin',(0.,-0.981276268897916,1.78124999999996));
#1172=CARTESIAN_POINT('Origin',(0.,-0.981276268897916,1.78124999999996));
#1173=CARTESIAN_POINT('',(0.,0.,0.));
#1174=UNCERTAINTY_MEASURE_WITH_UNIT(LENGTH_MEASURE(0.000393700787401575),
#1180,'DISTANCE_ACCURACY_VALUE',
'Maximum model space distance between geometric entities at asserted c
onnectivities');
#1175=UNCERTAINTY_MEASURE_WITH_UNIT(LENGTH_MEASURE(0.000393700787401575),
#1180,'DISTANCE_ACCURACY_VALUE',
'Maximum model space distance between geometric entities at asserted c
onnectivities');
#1176=(
GEOMETRIC_REPRESENTATION_CONTEXT(3)
GLOBAL_UNCERTAINTY_ASSIGNED_CONTEXT((#1174))
GLOBAL_UNIT_ASSIGNED_CONTEXT((#1180,#1184,#1185))
REPRESENTATION_CONTEXT('','3D')
);
#1177=(
GEOMETRIC_REPRESENTATION_CONTEXT(3)
GLOBAL_UNCERTAINTY_ASSIGNED_CONTEXT((#1175))
GLOBAL_UNIT_ASSIGNED_CONTEXT((#1180,#1184,#1185))
REPRESENTATION_CONTEXT('','3D')
);
#1178=DIMENSIONAL_EXPONENTS(1.,0.,0.,0.,0.,0.,0.);
#1179=DIMENSIONAL_EXPONENTS(0.,1.,0.,0.,0.,0.,0.);
#1180=(
CONVERSION_BASED_UNIT('inch',#1183)
LENGTH_UNIT()
NAMED_UNIT(#1178)
);
#1181=(
LENGTH_UNIT()
NAMED_UNIT(*)
SI_UNIT(.MILLI.,.METRE.)
);
#1182=(
LENGTH_UNIT()
NAMED_UNIT(*)
SI_UNIT(.CENTI.,.METRE.)
);
#1183=LENGTH_MEASURE_WITH_UNIT(LENGTH_MEASURE(25.4),#1181);
#1184=(
NAMED_UNIT(*)
PLANE_ANGLE_UNIT()
SI_UNIT($,.RADIAN.)
);
#1185=(
NAMED_UNIT(*)
SI_UNIT($,.STERADIAN.)
SOLID_ANGLE_UNIT()
);
#1186=SHAPE_DEFINITION_REPRESENTATION(#1187,#1188);
#1187=PRODUCT_DEFINITION_SHAPE('',$,#1190);
#1188=SHAPE_REPRESENTATION('',(#708),#1176);
#1189=DESIGN_CONTEXT('part definition',#1194,'design');
#1190=PRODUCT_DEFINITION('Single Direction Translation Casing',
'Single Direction Translation Casing',#1191,#1189);
#1191=PRODUCT_DEFINITION_FORMATION('',$,#1196);
#1192=PRODUCT_RELATED_PRODUCT_CATEGORY(
'Single Direction Translation Casing',
'Single Direction Translation Casing',(#1196));
#1193=APPLICATION_PROTOCOL_DEFINITION('international standard',
'ap203_configuration_controlled_3d_design_of_mechanical_parts_and_asse
mblies_mim_lf',2004,#1194);
#1194=APPLICATION_CONTEXT(
'Configuration Controlled 3D Design of Mechanical Parts and Assemblies');
#1195=MECHANICAL_CONTEXT('part definition',#1194,'mechanical');
#1196=PRODUCT('Single Direction Translation Casing',
'Single Direction Translation Casing',$,(#1195));
#1197=PRESENTATION_STYLE_ASSIGNMENT((#1201));
#1198=PRESENTATION_STYLE_ASSIGNMENT((#1202));
#1199=PRESENTATION_STYLE_ASSIGNMENT((#1203));
#1200=PRESENTATION_STYLE_ASSIGNMENT((#1204));
#1201=SURFACE_STYLE_USAGE(.BOTH.,#1207);
#1202=SURFACE_STYLE_USAGE(.BOTH.,#1208);
#1203=SURFACE_STYLE_USAGE(.BOTH.,#1209);
#1204=SURFACE_STYLE_USAGE(.BOTH.,#1210);
#1205=SURFACE_STYLE_RENDERING_WITH_PROPERTIES($,#1223,(#1206));
#1206=SURFACE_STYLE_TRANSPARENT(0.);
#1207=SURFACE_SIDE_STYLE('',(#1211,#1205));
#1208=SURFACE_SIDE_STYLE('',(#1212));
#1209=SURFACE_SIDE_STYLE('',(#1213));
#1210=SURFACE_SIDE_STYLE('',(#1214));
#1211=SURFACE_STYLE_FILL_AREA(#1215);
#1212=SURFACE_STYLE_FILL_AREA(#1216);
#1213=SURFACE_STYLE_FILL_AREA(#1217);
#1214=SURFACE_STYLE_FILL_AREA(#1218);
#1215=FILL_AREA_STYLE('',(#1219));
#1216=FILL_AREA_STYLE('',(#1220));
#1217=FILL_AREA_STYLE('',(#1221));
#1218=FILL_AREA_STYLE('',(#1222));
#1219=FILL_AREA_STYLE_COLOUR('',#1223);
#1220=FILL_AREA_STYLE_COLOUR('',#1224);
#1221=FILL_AREA_STYLE_COLOUR('',#1225);
#1222=FILL_AREA_STYLE_COLOUR('',#1226);
#1223=COLOUR_RGB('',0.749019607843137,0.749019607843137,0.749019607843137);
#1224=COLOUR_RGB('',1.,1.,0.);
#1225=COLOUR_RGB('',0.,0.,0.);
#1226=COLOUR_RGB('',1.,0.,1.);
ENDSEC;
END-ISO-10303-21;
