ISO-10303-21;
HEADER;
/* Generated by software containing ST-Developer
 * from STEP Tools, Inc. (www.steptools.com) 
 */

FILE_DESCRIPTION(
/* description */ (''),
/* implementation_level */ '2;1');

FILE_NAME(
/* name */ 'Grating Casing 1.stp',
/* time_stamp */ '2026-08-13T14:25:31-04:00',
/* author */ ('eliqu'),
/* organization */ (''),
/* preprocessor_version */ 'ST-DEVELOPER v20',
/* originating_system */ 'Autodesk Inventor 2025',
/* authorisation */ '');

FILE_SCHEMA (('CONFIG_CONTROL_DESIGN','MODEL_BASED_INTEGRATED_MANUFACTURING_SCHEMA'));
ENDSEC;

DATA;
#10=MECHANICAL_DESIGN_GEOMETRIC_PRESENTATION_REPRESENTATION('',(#17,#18),
#765);
#11=GEOMETRICALLY_BOUNDED_WIREFRAME_SHAPE_REPRESENTATION('',(#12),#764);
#12=GEOMETRIC_CURVE_SET('Sketch9',(#189,#16,#761));
#13=SHAPE_REPRESENTATION_RELATIONSHIP('SRR','None',#776,#15);
#14=SHAPE_REPRESENTATION_RELATIONSHIP('SRR','None',#776,#11);
#15=ADVANCED_BREP_SHAPE_REPRESENTATION('',(#19),#764);
#16=POLYLINE('',(#759,#760));
#17=STYLED_ITEM('',(#785),#19);
#18=STYLED_ITEM('',(#786),#189);
#19=MANIFOLD_SOLID_BREP('Solid1',#434);
#20=FACE_BOUND('',#71,.T.);
#21=FACE_BOUND('',#76,.T.);
#22=FACE_BOUND('',#82,.T.);
#23=FACE_BOUND('',#83,.T.);
#24=FACE_BOUND('',#84,.T.);
#25=FACE_BOUND('',#86,.T.);
#26=FACE_BOUND('',#91,.T.);
#27=FACE_BOUND('',#92,.T.);
#28=FACE_BOUND('',#93,.T.);
#29=PLANE('',#459);
#30=PLANE('',#463);
#31=PLANE('',#464);
#32=PLANE('',#465);
#33=PLANE('',#466);
#34=PLANE('',#467);
#35=PLANE('',#468);
#36=PLANE('',#475);
#37=PLANE('',#478);
#38=PLANE('',#479);
#39=PLANE('',#484);
#40=PLANE('',#487);
#41=PLANE('',#495);
#42=FACE_OUTER_BOUND('',#66,.T.);
#43=FACE_OUTER_BOUND('',#67,.T.);
#44=FACE_OUTER_BOUND('',#68,.T.);
#45=FACE_OUTER_BOUND('',#69,.T.);
#46=FACE_OUTER_BOUND('',#70,.T.);
#47=FACE_OUTER_BOUND('',#72,.T.);
#48=FACE_OUTER_BOUND('',#73,.T.);
#49=FACE_OUTER_BOUND('',#74,.T.);
#50=FACE_OUTER_BOUND('',#75,.T.);
#51=FACE_OUTER_BOUND('',#77,.T.);
#52=FACE_OUTER_BOUND('',#78,.T.);
#53=FACE_OUTER_BOUND('',#79,.T.);
#54=FACE_OUTER_BOUND('',#80,.T.);
#55=FACE_OUTER_BOUND('',#81,.T.);
#56=FACE_OUTER_BOUND('',#85,.T.);
#57=FACE_OUTER_BOUND('',#87,.T.);
#58=FACE_OUTER_BOUND('',#88,.T.);
#59=FACE_OUTER_BOUND('',#89,.T.);
#60=FACE_OUTER_BOUND('',#90,.T.);
#61=FACE_OUTER_BOUND('',#94,.T.);
#62=FACE_OUTER_BOUND('',#95,.T.);
#63=FACE_OUTER_BOUND('',#96,.T.);
#64=FACE_OUTER_BOUND('',#97,.T.);
#65=FACE_OUTER_BOUND('',#98,.T.);
#66=EDGE_LOOP('',(#285,#286,#287,#288));
#67=EDGE_LOOP('',(#289));
#68=EDGE_LOOP('',(#290,#291,#292,#293));
#69=EDGE_LOOP('',(#294,#295,#296,#297,#298,#299));
#70=EDGE_LOOP('',(#300,#301,#302,#303,#304,#305));
#71=EDGE_LOOP('',(#306));
#72=EDGE_LOOP('',(#307,#308,#309,#310));
#73=EDGE_LOOP('',(#311,#312,#313,#314));
#74=EDGE_LOOP('',(#315,#316,#317,#318));
#75=EDGE_LOOP('',(#319,#320,#321,#322,#323,#324,#325,#326,#327));
#76=EDGE_LOOP('',(#328));
#77=EDGE_LOOP('',(#329,#330,#331,#332));
#78=EDGE_LOOP('',(#333,#334,#335,#336));
#79=EDGE_LOOP('',(#337,#338,#339,#340));
#80=EDGE_LOOP('',(#341,#342,#343,#344));
#81=EDGE_LOOP('',(#345,#346,#347,#348,#349,#350,#351,#352,#353));
#82=EDGE_LOOP('',(#354));
#83=EDGE_LOOP('',(#355));
#84=EDGE_LOOP('',(#356));
#85=EDGE_LOOP('',(#357));
#86=EDGE_LOOP('',(#358));
#87=EDGE_LOOP('',(#359,#360,#361));
#88=EDGE_LOOP('',(#362,#363,#364,#365));
#89=EDGE_LOOP('',(#366,#367,#368,#369));
#90=EDGE_LOOP('',(#370));
#91=EDGE_LOOP('',(#371));
#92=EDGE_LOOP('',(#372));
#93=EDGE_LOOP('',(#373,#374));
#94=EDGE_LOOP('',(#375,#376,#377,#378));
#95=EDGE_LOOP('',(#379,#380,#381,#382,#383,#384,#385,#386));
#96=EDGE_LOOP('',(#387,#388,#389,#390));
#97=EDGE_LOOP('',(#391,#392,#393,#394));
#98=EDGE_LOOP('',(#395,#396,#397,#398));
#99=LINE('',#643,#132);
#100=LINE('',#651,#133);
#101=LINE('',#654,#134);
#102=LINE('',#657,#135);
#103=LINE('',#659,#136);
#104=LINE('',#661,#137);
#105=LINE('',#663,#138);
#106=LINE('',#664,#139);
#107=LINE('',#668,#140);
#108=LINE('',#670,#141);
#109=LINE('',#672,#142);
#110=LINE('',#674,#143);
#111=LINE('',#676,#144);
#112=LINE('',#677,#145);
#113=LINE('',#679,#146);
#114=LINE('',#680,#147);
#115=LINE('',#682,#148);
#116=LINE('',#683,#149);
#117=LINE('',#689,#150);
#118=LINE('',#693,#151);
#119=LINE('',#700,#152);
#120=LINE('',#703,#153);
#121=LINE('',#704,#154);
#122=LINE('',#707,#155);
#123=LINE('',#711,#156);
#124=LINE('',#712,#157);
#125=LINE('',#735,#158);
#126=LINE('',#739,#159);
#127=LINE('',#741,#160);
#128=LINE('',#750,#161);
#129=LINE('',#752,#162);
#130=LINE('',#754,#163);
#131=LINE('',#756,#164);
#132=VECTOR('',#511,0.0207741290824655);
#133=VECTOR('',#520,0.393700787401575);
#134=VECTOR('',#523,0.393700787401575);
#135=VECTOR('',#526,0.393700787401575);
#136=VECTOR('',#527,0.393700787401575);
#137=VECTOR('',#528,0.393700787401575);
#138=VECTOR('',#529,0.393700787401575);
#139=VECTOR('',#530,0.393700787401575);
#140=VECTOR('',#533,0.393700787401575);
#141=VECTOR('',#534,0.393700787401575);
#142=VECTOR('',#535,0.393700787401575);
#143=VECTOR('',#536,0.393700787401575);
#144=VECTOR('',#537,0.393700787401575);
#145=VECTOR('',#538,0.393700787401575);
#146=VECTOR('',#541,0.393700787401575);
#147=VECTOR('',#542,0.393700787401575);
#148=VECTOR('',#545,0.393700787401575);
#149=VECTOR('',#546,0.393700787401575);
#150=VECTOR('',#553,0.393700787401575);
#151=VECTOR('',#556,0.393700787401575);
#152=VECTOR('',#565,0.393700787401575);
#153=VECTOR('',#568,0.393700787401575);
#154=VECTOR('',#569,0.393700787401575);
#155=VECTOR('',#572,0.393700787401575);
#156=VECTOR('',#577,0.393700787401575);
#157=VECTOR('',#578,0.393700787401575);
#158=VECTOR('',#605,0.455006868080032);
#159=VECTOR('',#610,0.393700787401575);
#160=VECTOR('',#611,0.393700787401575);
#161=VECTOR('',#624,0.0748031496062992);
#162=VECTOR('',#627,0.0748031496062992);
#163=VECTOR('',#630,0.828647375302584);
#164=VECTOR('',#633,0.51);
#165=CIRCLE('',#457,0.0207741290824655);
#166=CIRCLE('',#458,0.0207741290824655);
#167=CIRCLE('',#461,0.125);
#168=CIRCLE('',#462,0.125);
#169=CIRCLE('',#469,0.898647375302584);
#170=CIRCLE('',#470,1.125);
#171=CIRCLE('',#471,0.898647375302584);
#172=CIRCLE('',#472,0.828647375302584);
#173=CIRCLE('',#474,0.898647375302584);
#174=CIRCLE('',#477,0.898647375302584);
#175=CIRCLE('',#480,1.125);
#176=CIRCLE('',#481,0.51);
#177=CIRCLE('',#482,0.0748031496062992);
#178=CIRCLE('',#483,0.0748031496062992);
#179=CIRCLE('',#485,0.51);
#180=CIRCLE('',#486,0.455006868080032);
#181=CIRCLE('',#488,0.0748031496062992);
#182=CIRCLE('',#489,0.592781096171281);
#183=CIRCLE('',#490,0.0748031496062992);
#184=CIRCLE('',#492,0.455006868080032);
#185=CIRCLE('',#494,0.592781096171281);
#186=CIRCLE('',#496,0.828647375302584);
#187=CIRCLE('',#497,0.0748031496062992);
#188=CIRCLE('',#498,0.0748031496062992);
#189=CIRCLE('',#504,0.455006868080032);
#190=VERTEX_POINT('',#640);
#191=VERTEX_POINT('',#642);
#192=VERTEX_POINT('',#647);
#193=VERTEX_POINT('',#648);
#194=VERTEX_POINT('',#650);
#195=VERTEX_POINT('',#652);
#196=VERTEX_POINT('',#656);
#197=VERTEX_POINT('',#658);
#198=VERTEX_POINT('',#660);
#199=VERTEX_POINT('',#662);
#200=VERTEX_POINT('',#666);
#201=VERTEX_POINT('',#667);
#202=VERTEX_POINT('',#669);
#203=VERTEX_POINT('',#671);
#204=VERTEX_POINT('',#673);
#205=VERTEX_POINT('',#675);
#206=VERTEX_POINT('',#686);
#207=VERTEX_POINT('',#688);
#208=VERTEX_POINT('',#690);
#209=VERTEX_POINT('',#692);
#210=VERTEX_POINT('',#695);
#211=VERTEX_POINT('',#698);
#212=VERTEX_POINT('',#702);
#213=VERTEX_POINT('',#706);
#214=VERTEX_POINT('',#710);
#215=VERTEX_POINT('',#715);
#216=VERTEX_POINT('',#717);
#217=VERTEX_POINT('',#719);
#218=VERTEX_POINT('',#722);
#219=VERTEX_POINT('',#724);
#220=VERTEX_POINT('',#727);
#221=VERTEX_POINT('',#728);
#222=VERTEX_POINT('',#730);
#223=VERTEX_POINT('',#734);
#224=VERTEX_POINT('',#738);
#225=VERTEX_POINT('',#740);
#226=VERTEX_POINT('',#744);
#227=VERTEX_POINT('',#746);
#228=EDGE_CURVE('',#190,#190,#165,.T.);
#229=EDGE_CURVE('',#190,#191,#99,.T.);
#230=EDGE_CURVE('',#191,#191,#166,.T.);
#231=EDGE_CURVE('',#192,#193,#167,.T.);
#232=EDGE_CURVE('',#193,#194,#100,.T.);
#233=EDGE_CURVE('',#194,#195,#168,.T.);
#234=EDGE_CURVE('',#195,#192,#101,.T.);
#235=EDGE_CURVE('',#196,#193,#102,.T.);
#236=EDGE_CURVE('',#196,#197,#103,.T.);
#237=EDGE_CURVE('',#197,#198,#104,.T.);
#238=EDGE_CURVE('',#198,#199,#105,.T.);
#239=EDGE_CURVE('',#199,#194,#106,.T.);
#240=EDGE_CURVE('',#200,#201,#107,.T.);
#241=EDGE_CURVE('',#202,#200,#108,.T.);
#242=EDGE_CURVE('',#202,#203,#109,.T.);
#243=EDGE_CURVE('',#203,#204,#110,.T.);
#244=EDGE_CURVE('',#204,#205,#111,.T.);
#245=EDGE_CURVE('',#205,#201,#112,.T.);
#246=EDGE_CURVE('',#201,#196,#113,.T.);
#247=EDGE_CURVE('',#205,#197,#114,.T.);
#248=EDGE_CURVE('',#203,#199,#115,.T.);
#249=EDGE_CURVE('',#204,#198,#116,.T.);
#250=EDGE_CURVE('',#192,#206,#169,.T.);
#251=EDGE_CURVE('',#206,#207,#117,.T.);
#252=EDGE_CURVE('',#207,#208,#170,.T.);
#253=EDGE_CURVE('',#208,#209,#118,.T.);
#254=EDGE_CURVE('',#209,#200,#171,.T.);
#255=EDGE_CURVE('',#210,#210,#172,.T.);
#256=EDGE_CURVE('',#211,#195,#173,.T.);
#257=EDGE_CURVE('',#206,#211,#119,.T.);
#258=EDGE_CURVE('',#212,#211,#120,.T.);
#259=EDGE_CURVE('',#207,#212,#121,.T.);
#260=EDGE_CURVE('',#209,#213,#122,.T.);
#261=EDGE_CURVE('',#202,#213,#174,.T.);
#262=EDGE_CURVE('',#213,#214,#123,.T.);
#263=EDGE_CURVE('',#214,#208,#124,.T.);
#264=EDGE_CURVE('',#214,#212,#175,.T.);
#265=EDGE_CURVE('',#215,#215,#176,.T.);
#266=EDGE_CURVE('',#216,#216,#177,.T.);
#267=EDGE_CURVE('',#217,#217,#178,.T.);
#268=EDGE_CURVE('',#218,#218,#179,.T.);
#269=EDGE_CURVE('',#219,#219,#180,.T.);
#270=EDGE_CURVE('',#220,#221,#181,.T.);
#271=EDGE_CURVE('',#220,#222,#182,.T.);
#272=EDGE_CURVE('',#221,#222,#183,.T.);
#273=EDGE_CURVE('',#219,#223,#125,.T.);
#274=EDGE_CURVE('',#223,#223,#184,.T.);
#275=EDGE_CURVE('',#222,#224,#126,.T.);
#276=EDGE_CURVE('',#225,#220,#127,.T.);
#277=EDGE_CURVE('',#224,#225,#185,.T.);
#278=EDGE_CURVE('',#226,#226,#186,.T.);
#279=EDGE_CURVE('',#227,#227,#187,.T.);
#280=EDGE_CURVE('',#225,#224,#188,.T.);
#281=EDGE_CURVE('',#216,#227,#128,.T.);
#282=EDGE_CURVE('',#217,#221,#129,.T.);
#283=EDGE_CURVE('',#226,#210,#130,.T.);
#284=EDGE_CURVE('',#215,#218,#131,.T.);
#285=ORIENTED_EDGE('',*,*,#228,.F.);
#286=ORIENTED_EDGE('',*,*,#229,.T.);
#287=ORIENTED_EDGE('',*,*,#230,.T.);
#288=ORIENTED_EDGE('',*,*,#229,.F.);
#289=ORIENTED_EDGE('',*,*,#230,.F.);
#290=ORIENTED_EDGE('',*,*,#231,.T.);
#291=ORIENTED_EDGE('',*,*,#232,.T.);
#292=ORIENTED_EDGE('',*,*,#233,.T.);
#293=ORIENTED_EDGE('',*,*,#234,.T.);
#294=ORIENTED_EDGE('',*,*,#232,.F.);
#295=ORIENTED_EDGE('',*,*,#235,.F.);
#296=ORIENTED_EDGE('',*,*,#236,.T.);
#297=ORIENTED_EDGE('',*,*,#237,.T.);
#298=ORIENTED_EDGE('',*,*,#238,.T.);
#299=ORIENTED_EDGE('',*,*,#239,.T.);
#300=ORIENTED_EDGE('',*,*,#240,.F.);
#301=ORIENTED_EDGE('',*,*,#241,.F.);
#302=ORIENTED_EDGE('',*,*,#242,.T.);
#303=ORIENTED_EDGE('',*,*,#243,.T.);
#304=ORIENTED_EDGE('',*,*,#244,.T.);
#305=ORIENTED_EDGE('',*,*,#245,.T.);
#306=ORIENTED_EDGE('',*,*,#228,.T.);
#307=ORIENTED_EDGE('',*,*,#246,.F.);
#308=ORIENTED_EDGE('',*,*,#245,.F.);
#309=ORIENTED_EDGE('',*,*,#247,.T.);
#310=ORIENTED_EDGE('',*,*,#236,.F.);
#311=ORIENTED_EDGE('',*,*,#243,.F.);
#312=ORIENTED_EDGE('',*,*,#248,.T.);
#313=ORIENTED_EDGE('',*,*,#238,.F.);
#314=ORIENTED_EDGE('',*,*,#249,.F.);
#315=ORIENTED_EDGE('',*,*,#244,.F.);
#316=ORIENTED_EDGE('',*,*,#249,.T.);
#317=ORIENTED_EDGE('',*,*,#237,.F.);
#318=ORIENTED_EDGE('',*,*,#247,.F.);
#319=ORIENTED_EDGE('',*,*,#240,.T.);
#320=ORIENTED_EDGE('',*,*,#246,.T.);
#321=ORIENTED_EDGE('',*,*,#235,.T.);
#322=ORIENTED_EDGE('',*,*,#231,.F.);
#323=ORIENTED_EDGE('',*,*,#250,.T.);
#324=ORIENTED_EDGE('',*,*,#251,.T.);
#325=ORIENTED_EDGE('',*,*,#252,.T.);
#326=ORIENTED_EDGE('',*,*,#253,.T.);
#327=ORIENTED_EDGE('',*,*,#254,.T.);
#328=ORIENTED_EDGE('',*,*,#255,.T.);
#329=ORIENTED_EDGE('',*,*,#234,.F.);
#330=ORIENTED_EDGE('',*,*,#256,.F.);
#331=ORIENTED_EDGE('',*,*,#257,.F.);
#332=ORIENTED_EDGE('',*,*,#250,.F.);
#333=ORIENTED_EDGE('',*,*,#258,.F.);
#334=ORIENTED_EDGE('',*,*,#259,.F.);
#335=ORIENTED_EDGE('',*,*,#251,.F.);
#336=ORIENTED_EDGE('',*,*,#257,.T.);
#337=ORIENTED_EDGE('',*,*,#241,.T.);
#338=ORIENTED_EDGE('',*,*,#254,.F.);
#339=ORIENTED_EDGE('',*,*,#260,.T.);
#340=ORIENTED_EDGE('',*,*,#261,.F.);
#341=ORIENTED_EDGE('',*,*,#262,.F.);
#342=ORIENTED_EDGE('',*,*,#260,.F.);
#343=ORIENTED_EDGE('',*,*,#253,.F.);
#344=ORIENTED_EDGE('',*,*,#263,.F.);
#345=ORIENTED_EDGE('',*,*,#261,.T.);
#346=ORIENTED_EDGE('',*,*,#262,.T.);
#347=ORIENTED_EDGE('',*,*,#264,.T.);
#348=ORIENTED_EDGE('',*,*,#258,.T.);
#349=ORIENTED_EDGE('',*,*,#256,.T.);
#350=ORIENTED_EDGE('',*,*,#233,.F.);
#351=ORIENTED_EDGE('',*,*,#239,.F.);
#352=ORIENTED_EDGE('',*,*,#248,.F.);
#353=ORIENTED_EDGE('',*,*,#242,.F.);
#354=ORIENTED_EDGE('',*,*,#265,.T.);
#355=ORIENTED_EDGE('',*,*,#266,.T.);
#356=ORIENTED_EDGE('',*,*,#267,.T.);
#357=ORIENTED_EDGE('',*,*,#268,.F.);
#358=ORIENTED_EDGE('',*,*,#269,.F.);
#359=ORIENTED_EDGE('',*,*,#270,.F.);
#360=ORIENTED_EDGE('',*,*,#271,.T.);
#361=ORIENTED_EDGE('',*,*,#272,.F.);
#362=ORIENTED_EDGE('',*,*,#269,.T.);
#363=ORIENTED_EDGE('',*,*,#273,.T.);
#364=ORIENTED_EDGE('',*,*,#274,.F.);
#365=ORIENTED_EDGE('',*,*,#273,.F.);
#366=ORIENTED_EDGE('',*,*,#275,.F.);
#367=ORIENTED_EDGE('',*,*,#271,.F.);
#368=ORIENTED_EDGE('',*,*,#276,.F.);
#369=ORIENTED_EDGE('',*,*,#277,.F.);
#370=ORIENTED_EDGE('',*,*,#278,.T.);
#371=ORIENTED_EDGE('',*,*,#279,.T.);
#372=ORIENTED_EDGE('',*,*,#274,.T.);
#373=ORIENTED_EDGE('',*,*,#277,.T.);
#374=ORIENTED_EDGE('',*,*,#280,.T.);
#375=ORIENTED_EDGE('',*,*,#266,.F.);
#376=ORIENTED_EDGE('',*,*,#281,.T.);
#377=ORIENTED_EDGE('',*,*,#279,.F.);
#378=ORIENTED_EDGE('',*,*,#281,.F.);
#379=ORIENTED_EDGE('',*,*,#267,.F.);
#380=ORIENTED_EDGE('',*,*,#282,.T.);
#381=ORIENTED_EDGE('',*,*,#272,.T.);
#382=ORIENTED_EDGE('',*,*,#275,.T.);
#383=ORIENTED_EDGE('',*,*,#280,.F.);
#384=ORIENTED_EDGE('',*,*,#276,.T.);
#385=ORIENTED_EDGE('',*,*,#270,.T.);
#386=ORIENTED_EDGE('',*,*,#282,.F.);
#387=ORIENTED_EDGE('',*,*,#278,.F.);
#388=ORIENTED_EDGE('',*,*,#283,.T.);
#389=ORIENTED_EDGE('',*,*,#255,.F.);
#390=ORIENTED_EDGE('',*,*,#283,.F.);
#391=ORIENTED_EDGE('',*,*,#265,.F.);
#392=ORIENTED_EDGE('',*,*,#284,.T.);
#393=ORIENTED_EDGE('',*,*,#268,.T.);
#394=ORIENTED_EDGE('',*,*,#284,.F.);
#395=ORIENTED_EDGE('',*,*,#259,.T.);
#396=ORIENTED_EDGE('',*,*,#264,.F.);
#397=ORIENTED_EDGE('',*,*,#263,.T.);
#398=ORIENTED_EDGE('',*,*,#252,.F.);
#399=CYLINDRICAL_SURFACE('',#456,0.0207741290824655);
#400=CYLINDRICAL_SURFACE('',#460,0.125);
#401=CYLINDRICAL_SURFACE('',#473,0.898647375302584);
#402=CYLINDRICAL_SURFACE('',#476,0.898647375302584);
#403=CYLINDRICAL_SURFACE('',#491,0.455006868080032);
#404=CYLINDRICAL_SURFACE('',#493,0.592781096171281);
#405=CYLINDRICAL_SURFACE('',#499,0.0748031496062992);
#406=CYLINDRICAL_SURFACE('',#500,0.0748031496062992);
#407=CYLINDRICAL_SURFACE('',#501,0.828647375302584);
#408=CYLINDRICAL_SURFACE('',#502,0.51);
#409=CYLINDRICAL_SURFACE('',#503,1.125);
#410=ADVANCED_FACE('',(#42),#399,.F.);
#411=ADVANCED_FACE('',(#43),#29,.T.);
#412=ADVANCED_FACE('',(#44),#400,.F.);
#413=ADVANCED_FACE('',(#45),#30,.T.);
#414=ADVANCED_FACE('',(#46,#20),#31,.T.);
#415=ADVANCED_FACE('',(#47),#32,.T.);
#416=ADVANCED_FACE('',(#48),#33,.T.);
#417=ADVANCED_FACE('',(#49),#34,.T.);
#418=ADVANCED_FACE('',(#50,#21),#35,.T.);
#419=ADVANCED_FACE('',(#51),#401,.T.);
#420=ADVANCED_FACE('',(#52),#36,.F.);
#421=ADVANCED_FACE('',(#53),#402,.T.);
#422=ADVANCED_FACE('',(#54),#37,.F.);
#423=ADVANCED_FACE('',(#55,#22,#23,#24),#38,.F.);
#424=ADVANCED_FACE('',(#56,#25),#39,.T.);
#425=ADVANCED_FACE('',(#57),#40,.F.);
#426=ADVANCED_FACE('',(#58),#403,.F.);
#427=ADVANCED_FACE('',(#59),#404,.T.);
#428=ADVANCED_FACE('',(#60,#26,#27,#28),#41,.T.);
#429=ADVANCED_FACE('',(#61),#405,.F.);
#430=ADVANCED_FACE('',(#62),#406,.F.);
#431=ADVANCED_FACE('',(#63),#407,.T.);
#432=ADVANCED_FACE('',(#64),#408,.F.);
#433=ADVANCED_FACE('',(#65),#409,.T.);
#434=CLOSED_SHELL('',(#410,#411,#412,#413,#414,#415,#416,#417,#418,#419,
#420,#421,#422,#423,#424,#425,#426,#427,#428,#429,#430,#431,#432,#433));
#435=DERIVED_UNIT_ELEMENT(#437,1.);
#436=DERIVED_UNIT_ELEMENT(#770,-3.);
#437=(
CONVERSION_BASED_UNIT('gram',#439)
MASS_UNIT()
NAMED_UNIT(#767)
);
#438=(
MASS_UNIT()
NAMED_UNIT(*)
SI_UNIT(.KILO.,.GRAM.)
);
#439=MASS_MEASURE_WITH_UNIT(MASS_MEASURE(0.001),#438);
#440=DERIVED_UNIT((#435,#436));
#441=MEASURE_REPRESENTATION_ITEM('density measure',
POSITIVE_RATIO_MEASURE(1.),#440);
#442=PROPERTY_DEFINITION_REPRESENTATION(#447,#444);
#443=PROPERTY_DEFINITION_REPRESENTATION(#448,#445);
#444=REPRESENTATION('material name',(#446),#764);
#445=REPRESENTATION('density',(#441),#764);
#446=DESCRIPTIVE_REPRESENTATION_ITEM('Generic','Generic');
#447=PROPERTY_DEFINITION('material property','material name',#778);
#448=PROPERTY_DEFINITION('material property','density of part',#778);
#449=DATE_TIME_ROLE('creation_date');
#450=CC_DESIGN_DATE_AND_TIME_ASSIGNMENT(#451,#449,(#778));
#451=DATE_AND_TIME(#452,#453);
#452=CALENDAR_DATE(2026,16,7);
#453=LOCAL_TIME(0,0,0.,#454);
#454=COORDINATED_UNIVERSAL_TIME_OFFSET(0,0,.BEHIND.);
#455=AXIS2_PLACEMENT_3D('',#638,#505,#506);
#456=AXIS2_PLACEMENT_3D('',#639,#507,#508);
#457=AXIS2_PLACEMENT_3D('',#641,#509,#510);
#458=AXIS2_PLACEMENT_3D('',#644,#512,#513);
#459=AXIS2_PLACEMENT_3D('',#645,#514,#515);
#460=AXIS2_PLACEMENT_3D('',#646,#516,#517);
#461=AXIS2_PLACEMENT_3D('',#649,#518,#519);
#462=AXIS2_PLACEMENT_3D('',#653,#521,#522);
#463=AXIS2_PLACEMENT_3D('',#655,#524,#525);
#464=AXIS2_PLACEMENT_3D('',#665,#531,#532);
#465=AXIS2_PLACEMENT_3D('',#678,#539,#540);
#466=AXIS2_PLACEMENT_3D('',#681,#543,#544);
#467=AXIS2_PLACEMENT_3D('',#684,#547,#548);
#468=AXIS2_PLACEMENT_3D('',#685,#549,#550);
#469=AXIS2_PLACEMENT_3D('',#687,#551,#552);
#470=AXIS2_PLACEMENT_3D('',#691,#554,#555);
#471=AXIS2_PLACEMENT_3D('',#694,#557,#558);
#472=AXIS2_PLACEMENT_3D('',#696,#559,#560);
#473=AXIS2_PLACEMENT_3D('',#697,#561,#562);
#474=AXIS2_PLACEMENT_3D('',#699,#563,#564);
#475=AXIS2_PLACEMENT_3D('',#701,#566,#567);
#476=AXIS2_PLACEMENT_3D('',#705,#570,#571);
#477=AXIS2_PLACEMENT_3D('',#708,#573,#574);
#478=AXIS2_PLACEMENT_3D('',#709,#575,#576);
#479=AXIS2_PLACEMENT_3D('',#713,#579,#580);
#480=AXIS2_PLACEMENT_3D('',#714,#581,#582);
#481=AXIS2_PLACEMENT_3D('',#716,#583,#584);
#482=AXIS2_PLACEMENT_3D('',#718,#585,#586);
#483=AXIS2_PLACEMENT_3D('',#720,#587,#588);
#484=AXIS2_PLACEMENT_3D('',#721,#589,#590);
#485=AXIS2_PLACEMENT_3D('',#723,#591,#592);
#486=AXIS2_PLACEMENT_3D('',#725,#593,#594);
#487=AXIS2_PLACEMENT_3D('',#726,#595,#596);
#488=AXIS2_PLACEMENT_3D('',#729,#597,#598);
#489=AXIS2_PLACEMENT_3D('',#731,#599,#600);
#490=AXIS2_PLACEMENT_3D('',#732,#601,#602);
#491=AXIS2_PLACEMENT_3D('',#733,#603,#604);
#492=AXIS2_PLACEMENT_3D('',#736,#606,#607);
#493=AXIS2_PLACEMENT_3D('',#737,#608,#609);
#494=AXIS2_PLACEMENT_3D('',#742,#612,#613);
#495=AXIS2_PLACEMENT_3D('',#743,#614,#615);
#496=AXIS2_PLACEMENT_3D('',#745,#616,#617);
#497=AXIS2_PLACEMENT_3D('',#747,#618,#619);
#498=AXIS2_PLACEMENT_3D('',#748,#620,#621);
#499=AXIS2_PLACEMENT_3D('',#749,#622,#623);
#500=AXIS2_PLACEMENT_3D('',#751,#625,#626);
#501=AXIS2_PLACEMENT_3D('',#753,#628,#629);
#502=AXIS2_PLACEMENT_3D('',#755,#631,#632);
#503=AXIS2_PLACEMENT_3D('',#757,#634,#635);
#504=AXIS2_PLACEMENT_3D('',#758,#636,#637);
#505=DIRECTION('axis',(0.,0.,1.));
#506=DIRECTION('refdir',(1.,0.,0.));
#507=DIRECTION('center_axis',(1.,0.,0.));
#508=DIRECTION('ref_axis',(0.,6.28603563731734E-33,1.));
#509=DIRECTION('center_axis',(1.,-2.08383657551714E-16,1.18891104007455E-16));
#510=DIRECTION('ref_axis',(0.,6.28603563731734E-33,1.));
#511=DIRECTION('',(1.,0.,0.));
#512=DIRECTION('center_axis',(1.,-2.08383657551714E-16,1.18891104007455E-16));
#513=DIRECTION('ref_axis',(-1.18891104007455E-16,6.28603563731734E-33,1.));
#514=DIRECTION('center_axis',(-1.,2.08383657551714E-16,-1.18891104007455E-16));
#515=DIRECTION('ref_axis',(-1.18891104007455E-16,0.,1.));
#516=DIRECTION('center_axis',(0.,-1.,0.));
#517=DIRECTION('ref_axis',(-0.811631734259002,0.,-0.584169434277184));
#518=DIRECTION('center_axis',(0.,1.,0.));
#519=DIRECTION('ref_axis',(-0.811631734259002,0.,-0.584169434277184));
#520=DIRECTION('',(-2.18547839493141E-16,-1.,0.));
#521=DIRECTION('center_axis',(0.,-1.,0.));
#522=DIRECTION('ref_axis',(-0.811631734259002,0.,-0.584169434277184));
#523=DIRECTION('',(0.,1.,0.));
#524=DIRECTION('center_axis',(1.,-2.18547839493141E-16,0.));
#525=DIRECTION('ref_axis',(0.,0.,-1.));
#526=DIRECTION('',(0.,0.,1.));
#527=DIRECTION('',(2.08383657551714E-16,1.,1.84889274661174E-32));
#528=DIRECTION('',(-1.18891104007455E-16,6.28603563731734E-33,1.));
#529=DIRECTION('',(-2.08383657551714E-16,-1.,-1.84889274661174E-32));
#530=DIRECTION('',(1.18891104007455E-16,-6.28603563731734E-33,-1.));
#531=DIRECTION('center_axis',(-1.,2.08383657551714E-16,-1.18891104007455E-16));
#532=DIRECTION('ref_axis',(-1.18891104007455E-16,0.,1.));
#533=DIRECTION('',(1.18891104007455E-16,0.,-1.));
#534=DIRECTION('',(0.,1.,0.));
#535=DIRECTION('',(-1.18891104007455E-16,6.28603563731734E-33,1.));
#536=DIRECTION('',(2.08383657551714E-16,1.,1.84889274661174E-32));
#537=DIRECTION('',(1.18891104007455E-16,-6.28603563731734E-33,-1.));
#538=DIRECTION('',(-2.08383657551714E-16,-1.,-1.84889274661174E-32));
#539=DIRECTION('center_axis',(4.04071515226535E-48,1.84889274661174E-32,
-1.));
#540=DIRECTION('ref_axis',(2.08383657551714E-16,1.,1.84889274661174E-32));
#541=DIRECTION('',(1.,0.,4.04071515226535E-48));
#542=DIRECTION('',(1.,-2.18547839493141E-16,0.));
#543=DIRECTION('center_axis',(-4.04071515226535E-48,-1.84889274661174E-32,
1.));
#544=DIRECTION('ref_axis',(-2.08383657551714E-16,-1.,-1.84889274661174E-32));
#545=DIRECTION('',(1.,-2.18547839493141E-16,0.));
#546=DIRECTION('',(1.,-2.18547839493141E-16,0.));
#547=DIRECTION('center_axis',(2.18547839493141E-16,1.,1.96973582784663E-32));
#548=DIRECTION('ref_axis',(-1.18891104007455E-16,6.28603563731734E-33,1.));
#549=DIRECTION('center_axis',(0.,1.,0.));
#550=DIRECTION('ref_axis',(0.,0.,1.));
#551=DIRECTION('center_axis',(0.,1.,0.));
#552=DIRECTION('ref_axis',(-1.,0.,0.));
#553=DIRECTION('',(0.976296007119933,0.,0.216439613938103));
#554=DIRECTION('center_axis',(0.,1.,0.));
#555=DIRECTION('ref_axis',(-1.,0.,0.));
#556=DIRECTION('',(-0.976296007119933,0.,0.216439613938103));
#557=DIRECTION('center_axis',(0.,1.,0.));
#558=DIRECTION('ref_axis',(-1.,0.,0.));
#559=DIRECTION('center_axis',(0.,-1.,0.));
#560=DIRECTION('ref_axis',(1.,0.,0.));
#561=DIRECTION('center_axis',(0.,-1.,0.));
#562=DIRECTION('ref_axis',(-1.,0.,0.));
#563=DIRECTION('center_axis',(0.,-1.,0.));
#564=DIRECTION('ref_axis',(-1.,0.,0.));
#565=DIRECTION('',(0.,-1.,0.));
#566=DIRECTION('center_axis',(0.216439613938103,0.,-0.976296007119933));
#567=DIRECTION('ref_axis',(0.976296007119933,0.,0.216439613938103));
#568=DIRECTION('',(-0.976296007119933,0.,-0.216439613938103));
#569=DIRECTION('',(0.,-1.,0.));
#570=DIRECTION('center_axis',(0.,-1.,0.));
#571=DIRECTION('ref_axis',(-1.,0.,0.));
#572=DIRECTION('',(0.,-1.,0.));
#573=DIRECTION('center_axis',(0.,-1.,0.));
#574=DIRECTION('ref_axis',(-1.,0.,0.));
#575=DIRECTION('center_axis',(0.216439613938103,0.,0.976296007119933));
#576=DIRECTION('ref_axis',(-0.976296007119933,0.,0.216439613938103));
#577=DIRECTION('',(0.976296007119933,0.,-0.216439613938103));
#578=DIRECTION('',(0.,1.,0.));
#579=DIRECTION('center_axis',(0.,1.,0.));
#580=DIRECTION('ref_axis',(0.,0.,1.));
#581=DIRECTION('center_axis',(0.,-1.,0.));
#582=DIRECTION('ref_axis',(-1.,0.,0.));
#583=DIRECTION('center_axis',(0.,1.,0.));
#584=DIRECTION('ref_axis',(1.,0.,0.));
#585=DIRECTION('center_axis',(0.,1.,0.));
#586=DIRECTION('ref_axis',(1.,0.,0.));
#587=DIRECTION('center_axis',(0.,1.,0.));
#588=DIRECTION('ref_axis',(1.,0.,0.));
#589=DIRECTION('center_axis',(0.,-1.,0.));
#590=DIRECTION('ref_axis',(0.,0.,-1.));
#591=DIRECTION('center_axis',(0.,1.,0.));
#592=DIRECTION('ref_axis',(1.,0.,0.));
#593=DIRECTION('center_axis',(0.,-1.,0.));
#594=DIRECTION('ref_axis',(-1.,0.,0.));
#595=DIRECTION('center_axis',(0.,1.,0.));
#596=DIRECTION('ref_axis',(0.,0.,1.));
#597=DIRECTION('center_axis',(0.,1.,0.));
#598=DIRECTION('ref_axis',(1.,0.,0.));
#599=DIRECTION('center_axis',(0.,-1.,0.));
#600=DIRECTION('ref_axis',(1.,0.,0.));
#601=DIRECTION('center_axis',(0.,1.,0.));
#602=DIRECTION('ref_axis',(1.,0.,0.));
#603=DIRECTION('center_axis',(0.,-1.,0.));
#604=DIRECTION('ref_axis',(-1.,0.,0.));
#605=DIRECTION('',(0.,1.,0.));
#606=DIRECTION('center_axis',(0.,-1.,0.));
#607=DIRECTION('ref_axis',(-1.,0.,0.));
#608=DIRECTION('center_axis',(0.,-1.,0.));
#609=DIRECTION('ref_axis',(1.,0.,0.));
#610=DIRECTION('',(0.,1.,0.));
#611=DIRECTION('',(0.,-1.,0.));
#612=DIRECTION('center_axis',(0.,1.,0.));
#613=DIRECTION('ref_axis',(1.,0.,0.));
#614=DIRECTION('center_axis',(0.,1.,0.));
#615=DIRECTION('ref_axis',(0.,0.,1.));
#616=DIRECTION('center_axis',(0.,1.,0.));
#617=DIRECTION('ref_axis',(1.,0.,0.));
#618=DIRECTION('center_axis',(0.,-1.,0.));
#619=DIRECTION('ref_axis',(1.,0.,0.));
#620=DIRECTION('center_axis',(0.,-1.,0.));
#621=DIRECTION('ref_axis',(1.,0.,0.));
#622=DIRECTION('center_axis',(0.,1.,0.));
#623=DIRECTION('ref_axis',(1.,0.,0.));
#624=DIRECTION('',(0.,1.,0.));
#625=DIRECTION('center_axis',(0.,1.,0.));
#626=DIRECTION('ref_axis',(1.,0.,0.));
#627=DIRECTION('',(0.,1.,0.));
#628=DIRECTION('center_axis',(0.,1.,0.));
#629=DIRECTION('ref_axis',(1.,0.,0.));
#630=DIRECTION('',(0.,-1.,0.));
#631=DIRECTION('center_axis',(0.,-1.,0.));
#632=DIRECTION('ref_axis',(1.,0.,0.));
#633=DIRECTION('',(0.,1.,0.));
#634=DIRECTION('center_axis',(0.,-1.,0.));
#635=DIRECTION('ref_axis',(1.,0.,1.22464679914735E-16));
#636=DIRECTION('center_axis',(0.,1.,0.));
#637=DIRECTION('ref_axis',(1.,0.,0.));
#638=CARTESIAN_POINT('',(0.,0.,0.));
#639=CARTESIAN_POINT('Origin',(1.25460172249422,-0.220841654788129,0.704664881308671));
#640=CARTESIAN_POINT('',(1.25460172249422,-0.220841654788129,0.683890752226206));
#641=CARTESIAN_POINT('Origin',(1.25460172249422,-0.220841654788129,0.704664881308671));
#642=CARTESIAN_POINT('',(1.30460172249422,-0.220841654788129,0.683890752226206));
#643=CARTESIAN_POINT('',(1.25460172249422,-0.220841654788129,0.683890752226206));
#644=CARTESIAN_POINT('Origin',(1.30460172249422,-0.220841654788129,0.704664881308671));
#645=CARTESIAN_POINT('Origin',(1.30460172249422,-0.220841654788129,0.704664881308671));
#646=CARTESIAN_POINT('Origin',(1.57960172249422,-0.189091654788129,0.624325687102222));
#647=CARTESIAN_POINT('',(1.53991520448015,-0.189091654788129,0.505793074341349));
#648=CARTESIAN_POINT('',(1.45460172249422,-0.189091654788129,0.624325687102222));
#649=CARTESIAN_POINT('Origin',(1.57960172249422,-0.189091654788129,0.624325687102222));
#650=CARTESIAN_POINT('',(1.45460172249422,-0.287091654788129,0.624325687102222));
#651=CARTESIAN_POINT('',(1.45460172249422,-0.189091654788129,0.624325687102222));
#652=CARTESIAN_POINT('',(1.53991520448015,-0.287091654788129,0.505793074341349));
#653=CARTESIAN_POINT('Origin',(1.57960172249422,-0.287091654788129,0.624325687102222));
#654=CARTESIAN_POINT('',(1.53991520448015,-0.189091654788129,0.505793074341349));
#655=CARTESIAN_POINT('Origin',(1.45460172249422,-0.206841654788129,0.699436557596522));
#656=CARTESIAN_POINT('',(1.45460172249422,-0.189091654788129,0.495232211614221));
#657=CARTESIAN_POINT('',(1.45460172249422,-0.189091654788129,0.176538730587672));
#658=CARTESIAN_POINT('',(1.45460172249422,-0.126591654788129,0.495232211614221));
#659=CARTESIAN_POINT('',(1.45460172249422,-0.126591654788129,0.495232211614221));
#660=CARTESIAN_POINT('',(1.45460172249422,-0.126591654788129,0.903640903578823));
#661=CARTESIAN_POINT('',(1.45460172249422,-0.126591654788129,0.903640903578823));
#662=CARTESIAN_POINT('',(1.45460172249422,-0.287091654788129,0.903640903578823));
#663=CARTESIAN_POINT('',(1.45460172249422,-0.287091654788129,0.903640903578823));
#664=CARTESIAN_POINT('',(1.45460172249422,-0.287091654788129,-1.24500647172376));
#665=CARTESIAN_POINT('Origin',(1.25460172249422,-0.206841654788129,0.699436557596522));
#666=CARTESIAN_POINT('',(1.25460172249421,-0.189091654788129,0.552288278881406));
#667=CARTESIAN_POINT('',(1.25460172249422,-0.189091654788129,0.495232211614221));
#668=CARTESIAN_POINT('',(1.25460172249422,-0.189091654788129,0.176538730587672));
#669=CARTESIAN_POINT('',(1.25460172249422,-0.287091654788129,0.552288278881406));
#670=CARTESIAN_POINT('',(1.25460172249421,-0.189091654788129,0.552288278881406));
#671=CARTESIAN_POINT('',(1.25460172249422,-0.287091654788129,0.903640903578823));
#672=CARTESIAN_POINT('',(1.25460172249422,-0.287091654788129,-1.24500647172376));
#673=CARTESIAN_POINT('',(1.25460172249422,-0.126591654788129,0.903640903578823));
#674=CARTESIAN_POINT('',(1.25460172249422,-0.287091654788129,0.903640903578823));
#675=CARTESIAN_POINT('',(1.25460172249422,-0.126591654788129,0.495232211614221));
#676=CARTESIAN_POINT('',(1.25460172249422,-0.126591654788129,0.903640903578823));
#677=CARTESIAN_POINT('',(1.25460172249422,-0.126591654788129,0.495232211614221));
#678=CARTESIAN_POINT('Origin',(1.25460172249422,-0.287091654788129,0.495232211614221));
#679=CARTESIAN_POINT('',(1.25460172249422,-0.189091654788129,0.495232211614221));
#680=CARTESIAN_POINT('',(1.25460172249422,-0.126591654788129,0.495232211614221));
#681=CARTESIAN_POINT('Origin',(1.25460172249422,-0.126591654788129,0.903640903578823));
#682=CARTESIAN_POINT('',(1.25460172249422,-0.287091654788129,0.903640903578823));
#683=CARTESIAN_POINT('',(1.25460172249422,-0.126591654788129,0.903640903578823));
#684=CARTESIAN_POINT('Origin',(1.25460172249422,-0.126591654788129,0.495232211614221));
#685=CARTESIAN_POINT('Origin',(1.25460172249422,-0.189091654788129,-0.346359096421177));
#686=CARTESIAN_POINT('',(2.13194756681094,-0.189091654788129,-0.151856205444196));
#687=CARTESIAN_POINT('Origin',(1.25460172249422,-0.189091654788129,-0.346359096421177));
#688=CARTESIAN_POINT('',(2.35293473050414,-0.189091654788129,-0.102864530740811));
#689=CARTESIAN_POINT('',(1.69327464465258,-0.189091654788129,-0.249107650932687));
#690=CARTESIAN_POINT('',(2.35293473050414,-0.189091654788129,-0.589853662101543));
#691=CARTESIAN_POINT('Origin',(1.25460172249422,-0.189091654788129,-0.346359096421177));
#692=CARTESIAN_POINT('',(2.13194756681094,-0.189091654788129,-0.540861987398158));
#693=CARTESIAN_POINT('',(1.80376822649918,-0.189091654788129,-0.46810637926136));
#694=CARTESIAN_POINT('Origin',(1.25460172249422,-0.189091654788129,-0.346359096421177));
#695=CARTESIAN_POINT('',(0.425954347191632,-0.189091654788129,-0.346359096421177));
#696=CARTESIAN_POINT('Origin',(1.25460172249422,-0.189091654788129,-0.346359096421177));
#697=CARTESIAN_POINT('Origin',(1.25460172249422,-0.189091654788129,-0.346359096421177));
#698=CARTESIAN_POINT('',(2.13194756681094,-0.287091654788129,-0.151856205444196));
#699=CARTESIAN_POINT('Origin',(1.25460172249422,-0.287091654788129,-0.346359096421177));
#700=CARTESIAN_POINT('',(2.13194756681094,-0.189091654788129,-0.151856205444196));
#701=CARTESIAN_POINT('Origin',(2.13194756681094,-0.189091654788129,-0.151856205444196));
#702=CARTESIAN_POINT('',(2.35293473050414,-0.287091654788129,-0.102864530740811));
#703=CARTESIAN_POINT('',(1.69327464465258,-0.287091654788129,-0.249107650932687));
#704=CARTESIAN_POINT('',(2.35293473050414,-0.189091654788129,-0.102864530740811));
#705=CARTESIAN_POINT('Origin',(1.25460172249422,-0.189091654788129,-0.346359096421177));
#706=CARTESIAN_POINT('',(2.13194756681094,-0.287091654788129,-0.540861987398158));
#707=CARTESIAN_POINT('',(2.13194756681094,-0.189091654788129,-0.540861987398158));
#708=CARTESIAN_POINT('Origin',(1.25460172249422,-0.287091654788129,-0.346359096421177));
#709=CARTESIAN_POINT('Origin',(2.35293473050414,-0.189091654788129,-0.589853662101543));
#710=CARTESIAN_POINT('',(2.35293473050414,-0.287091654788129,-0.589853662101543));
#711=CARTESIAN_POINT('',(1.80376822649918,-0.287091654788129,-0.46810637926136));
#712=CARTESIAN_POINT('',(2.35293473050414,-0.189091654788129,-0.589853662101543));
#713=CARTESIAN_POINT('Origin',(1.25460172249422,-0.287091654788129,-0.346359096421177));
#714=CARTESIAN_POINT('Origin',(1.25460172249422,-0.287091654788129,-0.346359096421177));
#715=CARTESIAN_POINT('',(0.744601722494215,-0.287091654788129,-0.346359096421177));
#716=CARTESIAN_POINT('Origin',(1.25460172249422,-0.287091654788129,-0.346359096421177));
#717=CARTESIAN_POINT('',(0.529798572887914,-0.287091654788129,-0.346359096421178));
#718=CARTESIAN_POINT('Origin',(0.604601722494213,-0.287091654788129,-0.346359096421178));
#719=CARTESIAN_POINT('',(1.82979857288792,-0.287091654788129,-0.346359096421178));
#720=CARTESIAN_POINT('Origin',(1.90460172249422,-0.287091654788129,-0.346359096421178));
#721=CARTESIAN_POINT('Origin',(1.25460172249422,-0.181217639040098,-0.346359096421177));
#722=CARTESIAN_POINT('',(0.744601722494215,-0.181217639040098,-0.346359096421177));
#723=CARTESIAN_POINT('Origin',(1.25460172249422,-0.181217639040098,-0.346359096421177));
#724=CARTESIAN_POINT('',(1.70960859057424,-0.181217639040098,-0.346359096421181));
#725=CARTESIAN_POINT('Origin',(1.25460172249422,-0.181217639040098,-0.346359096421177));
#726=CARTESIAN_POINT('Origin',(1.25460172249422,-0.189091654788129,-0.346359096421177));
#727=CARTESIAN_POINT('',(1.8455970430996,-0.189091654788129,-0.392336906292476));
#728=CARTESIAN_POINT('',(1.82979857288792,-0.189091654788129,-0.346359096421178));
#729=CARTESIAN_POINT('Origin',(1.90460172249422,-0.189091654788129,-0.346359096421178));
#730=CARTESIAN_POINT('',(1.8455970430996,-0.189091654788129,-0.30038128654988));
#731=CARTESIAN_POINT('Origin',(1.25460172249422,-0.189091654788129,-0.346359096421177));
#732=CARTESIAN_POINT('Origin',(1.90460172249422,-0.189091654788129,-0.346359096421178));
#733=CARTESIAN_POINT('Origin',(1.25460172249422,-0.0890916547881291,-0.346359096421177));
#734=CARTESIAN_POINT('',(1.70960859057425,-0.0890916547881291,-0.346359096421177));
#735=CARTESIAN_POINT('',(1.70960859057425,-0.0890916547881291,-0.346359096421177));
#736=CARTESIAN_POINT('Origin',(1.25460172249422,-0.0890916547881291,-0.346359096421177));
#737=CARTESIAN_POINT('Origin',(1.25460172249422,-0.0890916547881291,-0.346359096421177));
#738=CARTESIAN_POINT('',(1.8455970430996,-0.0890916547881291,-0.30038128654988));
#739=CARTESIAN_POINT('',(1.8455970430996,-0.0890916547881291,-0.30038128654988));
#740=CARTESIAN_POINT('',(1.8455970430996,-0.0890916547881291,-0.392336906292476));
#741=CARTESIAN_POINT('',(1.8455970430996,-0.0890916547881291,-0.392336906292476));
#742=CARTESIAN_POINT('Origin',(1.25460172249422,-0.0890916547881291,-0.346359096421177));
#743=CARTESIAN_POINT('Origin',(1.25460172249422,-0.0890916547881291,-0.346359096421177));
#744=CARTESIAN_POINT('',(0.425954347191632,-0.0890916547881291,-0.346359096421177));
#745=CARTESIAN_POINT('Origin',(1.25460172249422,-0.0890916547881291,-0.346359096421177));
#746=CARTESIAN_POINT('',(0.529798572887914,-0.0890916547881291,-0.346359096421178));
#747=CARTESIAN_POINT('Origin',(0.604601722494213,-0.0890916547881291,-0.346359096421178));
#748=CARTESIAN_POINT('Origin',(1.90460172249422,-0.0890916547881291,-0.346359096421178));
#749=CARTESIAN_POINT('Origin',(0.604601722494213,-0.287091654788129,-0.346359096421178));
#750=CARTESIAN_POINT('',(0.529798572887914,-0.287091654788129,-0.346359096421178));
#751=CARTESIAN_POINT('Origin',(1.90460172249422,-0.287091654788129,-0.346359096421178));
#752=CARTESIAN_POINT('',(1.82979857288792,-0.287091654788129,-0.346359096421178));
#753=CARTESIAN_POINT('Origin',(1.25460172249422,-0.189091654788129,-0.346359096421177));
#754=CARTESIAN_POINT('',(0.425954347191632,-0.189091654788129,-0.346359096421177));
#755=CARTESIAN_POINT('Origin',(1.25460172249422,-0.189091654788129,-0.346359096421177));
#756=CARTESIAN_POINT('',(0.744601722494215,-0.189091654788129,-0.346359096421177));
#757=CARTESIAN_POINT('Origin',(1.25460172249422,-0.189091654788129,-0.346359096421177));
#758=CARTESIAN_POINT('Origin',(1.25460172249422,-0.189091654788129,-0.346359096421177));
#759=CARTESIAN_POINT('polyline point',(1.25460172249422,-0.189091654788129,
0.108647771658855));
#760=CARTESIAN_POINT('polyline point',(1.25460172249422,-0.189091654788129,
1.09114090357882));
#761=CARTESIAN_POINT('',(0.,-0.189091654788129,0.));
#762=UNCERTAINTY_MEASURE_WITH_UNIT(LENGTH_MEASURE(0.000393700787401575),
#768,'DISTANCE_ACCURACY_VALUE',
'Maximum model space distance between geometric entities at asserted c
onnectivities');
#763=UNCERTAINTY_MEASURE_WITH_UNIT(LENGTH_MEASURE(0.000393700787401575),
#768,'DISTANCE_ACCURACY_VALUE',
'Maximum model space distance between geometric entities at asserted c
onnectivities');
#764=(
GEOMETRIC_REPRESENTATION_CONTEXT(3)
GLOBAL_UNCERTAINTY_ASSIGNED_CONTEXT((#762))
GLOBAL_UNIT_ASSIGNED_CONTEXT((#768,#772,#773))
REPRESENTATION_CONTEXT('','3D')
);
#765=(
GEOMETRIC_REPRESENTATION_CONTEXT(3)
GLOBAL_UNCERTAINTY_ASSIGNED_CONTEXT((#763))
GLOBAL_UNIT_ASSIGNED_CONTEXT((#768,#772,#773))
REPRESENTATION_CONTEXT('','3D')
);
#766=DIMENSIONAL_EXPONENTS(1.,0.,0.,0.,0.,0.,0.);
#767=DIMENSIONAL_EXPONENTS(0.,1.,0.,0.,0.,0.,0.);
#768=(
CONVERSION_BASED_UNIT('inch',#771)
LENGTH_UNIT()
NAMED_UNIT(#766)
);
#769=(
LENGTH_UNIT()
NAMED_UNIT(*)
SI_UNIT(.MILLI.,.METRE.)
);
#770=(
LENGTH_UNIT()
NAMED_UNIT(*)
SI_UNIT(.CENTI.,.METRE.)
);
#771=LENGTH_MEASURE_WITH_UNIT(LENGTH_MEASURE(25.4),#769);
#772=(
NAMED_UNIT(*)
PLANE_ANGLE_UNIT()
SI_UNIT($,.RADIAN.)
);
#773=(
NAMED_UNIT(*)
SI_UNIT($,.STERADIAN.)
SOLID_ANGLE_UNIT()
);
#774=SHAPE_DEFINITION_REPRESENTATION(#775,#776);
#775=PRODUCT_DEFINITION_SHAPE('',$,#778);
#776=SHAPE_REPRESENTATION('',(#455),#764);
#777=DESIGN_CONTEXT('part definition',#782,'design');
#778=PRODUCT_DEFINITION('Grating Mount','Grating Mount',#779,#777);
#779=PRODUCT_DEFINITION_FORMATION('',$,#784);
#780=PRODUCT_RELATED_PRODUCT_CATEGORY('Grating Mount','Grating Mount',(#784));
#781=APPLICATION_PROTOCOL_DEFINITION('international standard',
'ap203_configuration_controlled_3d_design_of_mechanical_parts_and_asse
mblies_mim_lf',2004,#782);
#782=APPLICATION_CONTEXT(
'Configuration Controlled 3D Design of Mechanical Parts and Assemblies');
#783=MECHANICAL_CONTEXT('part definition',#782,'mechanical');
#784=PRODUCT('Grating Mount','Grating Mount',$,(#783));
#785=PRESENTATION_STYLE_ASSIGNMENT((#787));
#786=PRESENTATION_STYLE_ASSIGNMENT((#788));
#787=SURFACE_STYLE_USAGE(.BOTH.,#791);
#788=SURFACE_STYLE_USAGE(.BOTH.,#792);
#789=SURFACE_STYLE_RENDERING_WITH_PROPERTIES($,#799,(#790));
#790=SURFACE_STYLE_TRANSPARENT(0.);
#791=SURFACE_SIDE_STYLE('',(#793,#789));
#792=SURFACE_SIDE_STYLE('',(#794));
#793=SURFACE_STYLE_FILL_AREA(#795);
#794=SURFACE_STYLE_FILL_AREA(#796);
#795=FILL_AREA_STYLE('',(#797));
#796=FILL_AREA_STYLE('',(#798));
#797=FILL_AREA_STYLE_COLOUR('',#799);
#798=FILL_AREA_STYLE_COLOUR('',#800);
#799=COLOUR_RGB('',0.749019607843137,0.749019607843137,0.749019607843137);
#800=COLOUR_RGB('',1.,1.,0.);
ENDSEC;
END-ISO-10303-21;
