ISO-10303-21;
HEADER;
/* Generated by software containing ST-Developer
 * from STEP Tools, Inc. (www.steptools.com) 
 */

FILE_DESCRIPTION(
/* description */ (''),
/* implementation_level */ '2;1');

FILE_NAME(
/* name */ 'Grating Casing 2.stp',
/* time_stamp */ '2026-08-13T14:26:01-04:00',
/* author */ ('eliqu'),
/* organization */ (''),
/* preprocessor_version */ 'ST-DEVELOPER v20',
/* originating_system */ 'Autodesk Inventor 2025',
/* authorisation */ '');

FILE_SCHEMA (('CONFIG_CONTROL_DESIGN'));
ENDSEC;

DATA;
#10=MECHANICAL_DESIGN_GEOMETRIC_PRESENTATION_REPRESENTATION('',(#13),#296);
#11=SHAPE_REPRESENTATION_RELATIONSHIP('SRR','None',#307,#12);
#12=ADVANCED_BREP_SHAPE_REPRESENTATION('',(#14),#295);
#13=STYLED_ITEM('',(#316),#14);
#14=MANIFOLD_SOLID_BREP('Solid1',#149);
#15=FACE_BOUND('',#38,.T.);
#16=FACE_BOUND('',#39,.T.);
#17=FACE_BOUND('',#40,.T.);
#18=FACE_BOUND('',#42,.T.);
#19=PLANE('',#187);
#20=PLANE('',#188);
#21=CYLINDRICAL_SURFACE('',#175,0.0885826771653545);
#22=CYLINDRICAL_SURFACE('',#179,0.455006868080032);
#23=CYLINDRICAL_SURFACE('',#181,0.0885826771653547);
#24=CYLINDRICAL_SURFACE('',#184,0.828647375302585);
#25=FACE_OUTER_BOUND('',#32,.T.);
#26=FACE_OUTER_BOUND('',#33,.T.);
#27=FACE_OUTER_BOUND('',#34,.T.);
#28=FACE_OUTER_BOUND('',#35,.T.);
#29=FACE_OUTER_BOUND('',#36,.T.);
#30=FACE_OUTER_BOUND('',#37,.T.);
#31=FACE_OUTER_BOUND('',#41,.T.);
#32=EDGE_LOOP('',(#101,#102,#103,#104,#105,#106,#107,#108,#109));
#33=EDGE_LOOP('',(#110,#111,#112,#113,#114,#115,#116));
#34=EDGE_LOOP('',(#117,#118,#119,#120));
#35=EDGE_LOOP('',(#121,#122,#123,#124,#125,#126));
#36=EDGE_LOOP('',(#127,#128,#129,#130));
#37=EDGE_LOOP('',(#131));
#38=EDGE_LOOP('',(#132));
#39=EDGE_LOOP('',(#133));
#40=EDGE_LOOP('',(#134));
#41=EDGE_LOOP('',(#135));
#42=EDGE_LOOP('',(#136,#137,#138,#139,#140));
#43=B_SPLINE_CURVE_WITH_KNOTS('',3,(#239,#240,#241,#242,#243,#244),
 .UNSPECIFIED.,.F.,.F.,(4,2,4),(0.234402545279097,0.301676357784078,0.377525388035172),
 .UNSPECIFIED.);
#44=B_SPLINE_CURVE_WITH_KNOTS('',3,(#248,#249,#250,#251,#252,#253),
 .UNSPECIFIED.,.F.,.F.,(4,2,4),(0.377525388035173,0.453374418286267,0.520648230791249),
 .UNSPECIFIED.);
#45=B_SPLINE_CURVE_WITH_KNOTS('',3,(#255,#256,#257,#258,#259,#260),
 .UNSPECIFIED.,.F.,.F.,(4,2,4),(0.234402545279097,0.301676357784079,0.377525388035173),
 .UNSPECIFIED.);
#46=B_SPLINE_CURVE_WITH_KNOTS('',3,(#263,#264,#265,#266,#267,#268),
 .UNSPECIFIED.,.F.,.F.,(4,2,4),(0.377525388035172,0.453374418286267,0.520648230791248),
 .UNSPECIFIED.);
#47=LINE('',#237,#52);
#48=LINE('',#273,#53);
#49=LINE('',#279,#54);
#50=LINE('',#282,#55);
#51=LINE('',#289,#56);
#52=VECTOR('',#195,0.517506868080032);
#53=VECTOR('',#204,0.0885826771653545);
#54=VECTOR('',#213,0.455006868080032);
#55=VECTOR('',#216,0.0885826771653547);
#56=VECTOR('',#225,0.828647375302585);
#57=CIRCLE('',#172,0.455006868080032);
#58=CIRCLE('',#173,0.580006868080032);
#59=CIRCLE('',#174,0.580006868080032);
#60=CIRCLE('',#176,0.0885826771653545);
#61=CIRCLE('',#177,0.0885826771653545);
#62=CIRCLE('',#178,0.0885826771653545);
#63=CIRCLE('',#180,0.455006868080032);
#64=CIRCLE('',#182,0.0885826771653547);
#65=CIRCLE('',#183,0.0885826771653547);
#66=CIRCLE('',#185,0.828647375302585);
#67=CIRCLE('',#186,0.828647375302585);
#68=VERTEX_POINT('',#234);
#69=VERTEX_POINT('',#236);
#70=VERTEX_POINT('',#238);
#71=VERTEX_POINT('',#245);
#72=VERTEX_POINT('',#247);
#73=VERTEX_POINT('',#254);
#74=VERTEX_POINT('',#261);
#75=VERTEX_POINT('',#270);
#76=VERTEX_POINT('',#272);
#77=VERTEX_POINT('',#277);
#78=VERTEX_POINT('',#281);
#79=VERTEX_POINT('',#286);
#80=VERTEX_POINT('',#288);
#81=EDGE_CURVE('',#68,#68,#57,.T.);
#82=EDGE_CURVE('',#68,#69,#47,.T.);
#83=EDGE_CURVE('',#70,#69,#43,.T.);
#84=EDGE_CURVE('',#70,#71,#58,.T.);
#85=EDGE_CURVE('',#72,#71,#44,.T.);
#86=EDGE_CURVE('',#73,#72,#45,.T.);
#87=EDGE_CURVE('',#73,#74,#59,.T.);
#88=EDGE_CURVE('',#69,#74,#46,.T.);
#89=EDGE_CURVE('',#75,#74,#60,.T.);
#90=EDGE_CURVE('',#75,#76,#48,.T.);
#91=EDGE_CURVE('',#76,#76,#61,.T.);
#92=EDGE_CURVE('',#70,#75,#62,.T.);
#93=EDGE_CURVE('',#77,#77,#63,.T.);
#94=EDGE_CURVE('',#77,#68,#49,.T.);
#95=EDGE_CURVE('',#72,#78,#50,.T.);
#96=EDGE_CURVE('',#78,#78,#64,.T.);
#97=EDGE_CURVE('',#73,#71,#65,.T.);
#98=EDGE_CURVE('',#79,#79,#66,.T.);
#99=EDGE_CURVE('',#79,#80,#51,.T.);
#100=EDGE_CURVE('',#80,#80,#67,.T.);
#101=ORIENTED_EDGE('',*,*,#81,.T.);
#102=ORIENTED_EDGE('',*,*,#82,.T.);
#103=ORIENTED_EDGE('',*,*,#83,.F.);
#104=ORIENTED_EDGE('',*,*,#84,.T.);
#105=ORIENTED_EDGE('',*,*,#85,.F.);
#106=ORIENTED_EDGE('',*,*,#86,.F.);
#107=ORIENTED_EDGE('',*,*,#87,.T.);
#108=ORIENTED_EDGE('',*,*,#88,.F.);
#109=ORIENTED_EDGE('',*,*,#82,.F.);
#110=ORIENTED_EDGE('',*,*,#83,.T.);
#111=ORIENTED_EDGE('',*,*,#88,.T.);
#112=ORIENTED_EDGE('',*,*,#89,.F.);
#113=ORIENTED_EDGE('',*,*,#90,.T.);
#114=ORIENTED_EDGE('',*,*,#91,.F.);
#115=ORIENTED_EDGE('',*,*,#90,.F.);
#116=ORIENTED_EDGE('',*,*,#92,.F.);
#117=ORIENTED_EDGE('',*,*,#93,.F.);
#118=ORIENTED_EDGE('',*,*,#94,.T.);
#119=ORIENTED_EDGE('',*,*,#81,.F.);
#120=ORIENTED_EDGE('',*,*,#94,.F.);
#121=ORIENTED_EDGE('',*,*,#86,.T.);
#122=ORIENTED_EDGE('',*,*,#95,.T.);
#123=ORIENTED_EDGE('',*,*,#96,.F.);
#124=ORIENTED_EDGE('',*,*,#95,.F.);
#125=ORIENTED_EDGE('',*,*,#85,.T.);
#126=ORIENTED_EDGE('',*,*,#97,.F.);
#127=ORIENTED_EDGE('',*,*,#98,.F.);
#128=ORIENTED_EDGE('',*,*,#99,.T.);
#129=ORIENTED_EDGE('',*,*,#100,.T.);
#130=ORIENTED_EDGE('',*,*,#99,.F.);
#131=ORIENTED_EDGE('',*,*,#98,.T.);
#132=ORIENTED_EDGE('',*,*,#91,.T.);
#133=ORIENTED_EDGE('',*,*,#96,.T.);
#134=ORIENTED_EDGE('',*,*,#93,.T.);
#135=ORIENTED_EDGE('',*,*,#100,.F.);
#136=ORIENTED_EDGE('',*,*,#84,.F.);
#137=ORIENTED_EDGE('',*,*,#92,.T.);
#138=ORIENTED_EDGE('',*,*,#89,.T.);
#139=ORIENTED_EDGE('',*,*,#87,.F.);
#140=ORIENTED_EDGE('',*,*,#97,.T.);
#141=CONICAL_SURFACE('',#171,0.517506868080032,0.785398163397448);
#142=ADVANCED_FACE('',(#25),#141,.F.);
#143=ADVANCED_FACE('',(#26),#21,.F.);
#144=ADVANCED_FACE('',(#27),#22,.F.);
#145=ADVANCED_FACE('',(#28),#23,.F.);
#146=ADVANCED_FACE('',(#29),#24,.T.);
#147=ADVANCED_FACE('',(#30,#15,#16,#17),#19,.T.);
#148=ADVANCED_FACE('',(#31,#18),#20,.F.);
#149=CLOSED_SHELL('',(#142,#143,#144,#145,#146,#147,#148));
#150=DERIVED_UNIT_ELEMENT(#152,1.);
#151=DERIVED_UNIT_ELEMENT(#301,-3.);
#152=(
CONVERSION_BASED_UNIT('gram',#154)
MASS_UNIT()
NAMED_UNIT(#298)
);
#153=(
MASS_UNIT()
NAMED_UNIT(*)
SI_UNIT(.KILO.,.GRAM.)
);
#154=MASS_MEASURE_WITH_UNIT(MASS_MEASURE(0.001),#153);
#155=DERIVED_UNIT((#150,#151));
#156=MEASURE_REPRESENTATION_ITEM('density measure',
POSITIVE_RATIO_MEASURE(1.),#155);
#157=PROPERTY_DEFINITION_REPRESENTATION(#162,#159);
#158=PROPERTY_DEFINITION_REPRESENTATION(#163,#160);
#159=REPRESENTATION('material name',(#161),#295);
#160=REPRESENTATION('density',(#156),#295);
#161=DESCRIPTIVE_REPRESENTATION_ITEM('Generic','Generic');
#162=PROPERTY_DEFINITION('material property','material name',#309);
#163=PROPERTY_DEFINITION('material property','density of part',#309);
#164=DATE_TIME_ROLE('creation_date');
#165=CC_DESIGN_DATE_AND_TIME_ASSIGNMENT(#166,#164,(#309));
#166=DATE_AND_TIME(#167,#168);
#167=CALENDAR_DATE(2026,16,7);
#168=LOCAL_TIME(0,0,0.,#169);
#169=COORDINATED_UNIVERSAL_TIME_OFFSET(0,0,.BEHIND.);
#170=AXIS2_PLACEMENT_3D('',#232,#189,#190);
#171=AXIS2_PLACEMENT_3D('',#233,#191,#192);
#172=AXIS2_PLACEMENT_3D('',#235,#193,#194);
#173=AXIS2_PLACEMENT_3D('',#246,#196,#197);
#174=AXIS2_PLACEMENT_3D('',#262,#198,#199);
#175=AXIS2_PLACEMENT_3D('',#269,#200,#201);
#176=AXIS2_PLACEMENT_3D('',#271,#202,#203);
#177=AXIS2_PLACEMENT_3D('',#274,#205,#206);
#178=AXIS2_PLACEMENT_3D('',#275,#207,#208);
#179=AXIS2_PLACEMENT_3D('',#276,#209,#210);
#180=AXIS2_PLACEMENT_3D('',#278,#211,#212);
#181=AXIS2_PLACEMENT_3D('',#280,#214,#215);
#182=AXIS2_PLACEMENT_3D('',#283,#217,#218);
#183=AXIS2_PLACEMENT_3D('',#284,#219,#220);
#184=AXIS2_PLACEMENT_3D('',#285,#221,#222);
#185=AXIS2_PLACEMENT_3D('',#287,#223,#224);
#186=AXIS2_PLACEMENT_3D('',#290,#226,#227);
#187=AXIS2_PLACEMENT_3D('',#291,#228,#229);
#188=AXIS2_PLACEMENT_3D('',#292,#230,#231);
#189=DIRECTION('axis',(0.,0.,1.));
#190=DIRECTION('refdir',(1.,0.,0.));
#191=DIRECTION('center_axis',(0.,-1.,0.));
#192=DIRECTION('ref_axis',(1.,0.,0.));
#193=DIRECTION('center_axis',(0.,1.,0.));
#194=DIRECTION('ref_axis',(1.,0.,0.));
#195=DIRECTION('',(-0.707106781186547,-0.707106781186548,8.65956056235493E-17));
#196=DIRECTION('center_axis',(0.,-1.,0.));
#197=DIRECTION('ref_axis',(1.,0.,0.));
#198=DIRECTION('center_axis',(0.,-1.,0.));
#199=DIRECTION('ref_axis',(1.,0.,0.));
#200=DIRECTION('center_axis',(0.,1.,0.));
#201=DIRECTION('ref_axis',(1.,0.,0.));
#202=DIRECTION('center_axis',(0.,1.,0.));
#203=DIRECTION('ref_axis',(1.,0.,0.));
#204=DIRECTION('',(0.,1.,0.));
#205=DIRECTION('center_axis',(0.,-1.,0.));
#206=DIRECTION('ref_axis',(1.,0.,0.));
#207=DIRECTION('center_axis',(0.,1.,0.));
#208=DIRECTION('ref_axis',(1.,0.,0.));
#209=DIRECTION('center_axis',(0.,1.,0.));
#210=DIRECTION('ref_axis',(1.,0.,0.));
#211=DIRECTION('center_axis',(0.,-1.,0.));
#212=DIRECTION('ref_axis',(1.,0.,0.));
#213=DIRECTION('',(0.,-1.,0.));
#214=DIRECTION('center_axis',(0.,1.,0.));
#215=DIRECTION('ref_axis',(1.,0.,0.));
#216=DIRECTION('',(0.,1.,0.));
#217=DIRECTION('center_axis',(0.,-1.,0.));
#218=DIRECTION('ref_axis',(1.,0.,0.));
#219=DIRECTION('center_axis',(0.,1.,0.));
#220=DIRECTION('ref_axis',(1.,0.,0.));
#221=DIRECTION('center_axis',(0.,1.,0.));
#222=DIRECTION('ref_axis',(-1.,0.,0.));
#223=DIRECTION('center_axis',(0.,1.,0.));
#224=DIRECTION('ref_axis',(-1.,0.,0.));
#225=DIRECTION('',(0.,-1.,0.));
#226=DIRECTION('center_axis',(0.,1.,0.));
#227=DIRECTION('ref_axis',(-1.,0.,0.));
#228=DIRECTION('center_axis',(0.,1.,0.));
#229=DIRECTION('ref_axis',(0.,0.,1.));
#230=DIRECTION('center_axis',(0.,1.,0.));
#231=DIRECTION('ref_axis',(0.,0.,1.));
#232=CARTESIAN_POINT('',(0.,0.,0.));
#233=CARTESIAN_POINT('Origin',(0.077652791691665,0.0625,-0.860566646660007));
#234=CARTESIAN_POINT('',(-0.377354076388367,0.125,-0.860566646660007));
#235=CARTESIAN_POINT('Origin',(0.077652791691665,0.125,-0.860566646660007));
#236=CARTESIAN_POINT('',(-0.48376453114298,0.0185895452453868,-0.860566646660008));
#237=CARTESIAN_POINT('',(-0.439854076388367,0.0625,-0.860566646660007));
#238=CARTESIAN_POINT('',(-0.500086497790048,0.,-0.911804136930061));
#239=CARTESIAN_POINT('Ctrl Pts',(-0.500086497790048,-6.69302758447744E-17,
-0.911804136930061));
#240=CARTESIAN_POINT('Ctrl Pts',(-0.495727255387657,0.00488530001538407,
-0.905656256702946));
#241=CARTESIAN_POINT('Ctrl Pts',(-0.491703915929572,0.00946186853875695,
-0.898237868775905));
#242=CARTESIAN_POINT('Ctrl Pts',(-0.485550414629479,0.0165132803326737,
-0.880797137345692));
#243=CARTESIAN_POINT('Ctrl Pts',(-0.48376453114298,0.0185895452453868,-0.870520587637842));
#244=CARTESIAN_POINT('Ctrl Pts',(-0.48376453114298,0.0185895452453868,-0.860566646660008));
#245=CARTESIAN_POINT('',(0.655392081173378,0.,-0.911804136930061));
#246=CARTESIAN_POINT('Origin',(0.077652791691665,0.,-0.860566646660007));
#247=CARTESIAN_POINT('',(0.63907011452631,0.0185895452453869,-0.860566646660008));
#248=CARTESIAN_POINT('Ctrl Pts',(0.63907011452631,0.018589545245387,-0.860566646660008));
#249=CARTESIAN_POINT('Ctrl Pts',(0.63907011452631,0.0185895452453869,-0.870520587637842));
#250=CARTESIAN_POINT('Ctrl Pts',(0.640855998012809,0.0165132803326739,-0.880797137345692));
#251=CARTESIAN_POINT('Ctrl Pts',(0.647009499312902,0.00946186853875713,
-0.898237868775905));
#252=CARTESIAN_POINT('Ctrl Pts',(0.651032838770986,0.00488530001538415,
-0.905656256702946));
#253=CARTESIAN_POINT('Ctrl Pts',(0.655392081173378,3.96117959081318E-17,
-0.911804136930061));
#254=CARTESIAN_POINT('',(0.655392081173378,0.,-0.809329156389956));
#255=CARTESIAN_POINT('Ctrl Pts',(0.655392081173378,7.17110098336869E-17,
-0.809329156389956));
#256=CARTESIAN_POINT('Ctrl Pts',(0.651032838770987,0.00488530001538421,
-0.81547703661707));
#257=CARTESIAN_POINT('Ctrl Pts',(0.647009499312902,0.00946186853875725,
-0.822895424544112));
#258=CARTESIAN_POINT('Ctrl Pts',(0.640855998012809,0.016513280332674,-0.840336155974324));
#259=CARTESIAN_POINT('Ctrl Pts',(0.63907011452631,0.0185895452453869,-0.850612705682174));
#260=CARTESIAN_POINT('Ctrl Pts',(0.63907011452631,0.0185895452453869,-0.860566646660008));
#261=CARTESIAN_POINT('',(-0.500086497790048,0.,-0.809329156389956));
#262=CARTESIAN_POINT('Origin',(0.077652791691665,0.,-0.860566646660007));
#263=CARTESIAN_POINT('Ctrl Pts',(-0.48376453114298,0.0185895452453868,-0.860566646660008));
#264=CARTESIAN_POINT('Ctrl Pts',(-0.48376453114298,0.0185895452453868,-0.850612705682174));
#265=CARTESIAN_POINT('Ctrl Pts',(-0.485550414629479,0.0165132803326739,
-0.840336155974325));
#266=CARTESIAN_POINT('Ctrl Pts',(-0.491703915929572,0.00946186853875715,
-0.822895424544112));
#267=CARTESIAN_POINT('Ctrl Pts',(-0.495727255387657,0.00488530001538411,
-0.815477036617071));
#268=CARTESIAN_POINT('Ctrl Pts',(-0.500086497790048,-1.43422019667374E-17,
-0.809329156389956));
#269=CARTESIAN_POINT('Origin',(-0.572347208308335,0.,-0.860566646660008));
#270=CARTESIAN_POINT('',(-0.66092988547369,-6.69302758447744E-17,-0.860566646660008));
#271=CARTESIAN_POINT('Origin',(-0.572347208308335,0.,-0.860566646660008));
#272=CARTESIAN_POINT('',(-0.66092988547369,0.2,-0.860566646660008));
#273=CARTESIAN_POINT('',(-0.66092988547369,0.,-0.860566646660008));
#274=CARTESIAN_POINT('Origin',(-0.572347208308335,0.2,-0.860566646660008));
#275=CARTESIAN_POINT('Origin',(-0.572347208308335,0.,-0.860566646660008));
#276=CARTESIAN_POINT('Origin',(0.077652791691665,0.,-0.860566646660007));
#277=CARTESIAN_POINT('',(-0.377354076388367,0.2,-0.860566646660007));
#278=CARTESIAN_POINT('Origin',(0.077652791691665,0.2,-0.860566646660007));
#279=CARTESIAN_POINT('',(-0.377354076388367,0.,-0.860566646660007));
#280=CARTESIAN_POINT('Origin',(0.727652791691665,0.,-0.860566646660008));
#281=CARTESIAN_POINT('',(0.63907011452631,0.2,-0.860566646660008));
#282=CARTESIAN_POINT('',(0.63907011452631,0.,-0.860566646660008));
#283=CARTESIAN_POINT('Origin',(0.727652791691665,0.2,-0.860566646660008));
#284=CARTESIAN_POINT('Origin',(0.727652791691665,0.,-0.860566646660008));
#285=CARTESIAN_POINT('Origin',(0.0776527916916655,0.,-0.860566646660007));
#286=CARTESIAN_POINT('',(0.906300166994251,0.2,-0.860566646660007));
#287=CARTESIAN_POINT('Origin',(0.0776527916916655,0.2,-0.860566646660007));
#288=CARTESIAN_POINT('',(0.906300166994251,0.,-0.860566646660007));
#289=CARTESIAN_POINT('',(0.906300166994251,0.,-0.860566646660007));
#290=CARTESIAN_POINT('Origin',(0.0776527916916655,0.,-0.860566646660007));
#291=CARTESIAN_POINT('Origin',(0.0776527916916656,0.2,-0.860566646660007));
#292=CARTESIAN_POINT('Origin',(0.0776527916916656,0.,-0.860566646660007));
#293=UNCERTAINTY_MEASURE_WITH_UNIT(LENGTH_MEASURE(0.000393700787401575),
#299,'DISTANCE_ACCURACY_VALUE',
'Maximum model space distance between geometric entities at asserted c
onnectivities');
#294=UNCERTAINTY_MEASURE_WITH_UNIT(LENGTH_MEASURE(0.000393700787401575),
#299,'DISTANCE_ACCURACY_VALUE',
'Maximum model space distance between geometric entities at asserted c
onnectivities');
#295=(
GEOMETRIC_REPRESENTATION_CONTEXT(3)
GLOBAL_UNCERTAINTY_ASSIGNED_CONTEXT((#293))
GLOBAL_UNIT_ASSIGNED_CONTEXT((#299,#303,#304))
REPRESENTATION_CONTEXT('','3D')
);
#296=(
GEOMETRIC_REPRESENTATION_CONTEXT(3)
GLOBAL_UNCERTAINTY_ASSIGNED_CONTEXT((#294))
GLOBAL_UNIT_ASSIGNED_CONTEXT((#299,#303,#304))
REPRESENTATION_CONTEXT('','3D')
);
#297=DIMENSIONAL_EXPONENTS(1.,0.,0.,0.,0.,0.,0.);
#298=DIMENSIONAL_EXPONENTS(0.,1.,0.,0.,0.,0.,0.);
#299=(
CONVERSION_BASED_UNIT('inch',#302)
LENGTH_UNIT()
NAMED_UNIT(#297)
);
#300=(
LENGTH_UNIT()
NAMED_UNIT(*)
SI_UNIT(.MILLI.,.METRE.)
);
#301=(
LENGTH_UNIT()
NAMED_UNIT(*)
SI_UNIT(.CENTI.,.METRE.)
);
#302=LENGTH_MEASURE_WITH_UNIT(LENGTH_MEASURE(25.4),#300);
#303=(
NAMED_UNIT(*)
PLANE_ANGLE_UNIT()
SI_UNIT($,.RADIAN.)
);
#304=(
NAMED_UNIT(*)
SI_UNIT($,.STERADIAN.)
SOLID_ANGLE_UNIT()
);
#305=SHAPE_DEFINITION_REPRESENTATION(#306,#307);
#306=PRODUCT_DEFINITION_SHAPE('',$,#309);
#307=SHAPE_REPRESENTATION('',(#170),#295);
#308=DESIGN_CONTEXT('part definition',#313,'design');
#309=PRODUCT_DEFINITION('Grating Mount cap','Grating Mount cap',#310,#308);
#310=PRODUCT_DEFINITION_FORMATION('',$,#315);
#311=PRODUCT_RELATED_PRODUCT_CATEGORY('Grating Mount cap',
'Grating Mount cap',(#315));
#312=APPLICATION_PROTOCOL_DEFINITION('international standard',
'ap203_configuration_controlled_3d_design_of_mechanical_parts_and_asse
mblies_mim_lf',2004,#313);
#313=APPLICATION_CONTEXT(
'Configuration Controlled 3D Design of Mechanical Parts and Assemblies');
#314=MECHANICAL_CONTEXT('part definition',#313,'mechanical');
#315=PRODUCT('Grating Mount cap','Grating Mount cap',$,(#314));
#316=PRESENTATION_STYLE_ASSIGNMENT((#317));
#317=SURFACE_STYLE_USAGE(.BOTH.,#320);
#318=SURFACE_STYLE_RENDERING_WITH_PROPERTIES($,#324,(#319));
#319=SURFACE_STYLE_TRANSPARENT(0.);
#320=SURFACE_SIDE_STYLE('',(#321,#318));
#321=SURFACE_STYLE_FILL_AREA(#322);
#322=FILL_AREA_STYLE('',(#323));
#323=FILL_AREA_STYLE_COLOUR('',#324);
#324=COLOUR_RGB('',0.749019607843137,0.749019607843137,0.749019607843137);
ENDSEC;
END-ISO-10303-21;
