ISO-10303-21;
HEADER;
/* Generated by software containing ST-Developer
 * from STEP Tools, Inc. (www.steptools.com) 
 */

FILE_DESCRIPTION(
/* description */ (''),
/* implementation_level */ '2;1');

FILE_NAME(
/* name */ 'Grating Clamp.stp',
/* time_stamp */ '2026-08-13T14:28:18-04:00',
/* author */ ('eliqu'),
/* organization */ (''),
/* preprocessor_version */ 'ST-DEVELOPER v20',
/* originating_system */ 'Autodesk Inventor 2025',
/* authorisation */ '');

FILE_SCHEMA (('CONFIG_CONTROL_DESIGN'));
ENDSEC;

DATA;
#10=MECHANICAL_DESIGN_GEOMETRIC_PRESENTATION_REPRESENTATION('',(#13),#277);
#11=SHAPE_REPRESENTATION_RELATIONSHIP('SRR','None',#288,#12);
#12=ADVANCED_BREP_SHAPE_REPRESENTATION('',(#14),#276);
#13=STYLED_ITEM('',(#297),#14);
#14=MANIFOLD_SOLID_BREP('Solid1',#145);
#15=FACE_BOUND('',#36,.T.);
#16=FACE_BOUND('',#37,.T.);
#17=FACE_BOUND('',#39,.T.);
#18=FACE_BOUND('',#40,.T.);
#19=PLANE('',#185);
#20=PLANE('',#186);
#21=FACE_OUTER_BOUND('',#29,.T.);
#22=FACE_OUTER_BOUND('',#30,.T.);
#23=FACE_OUTER_BOUND('',#31,.T.);
#24=FACE_OUTER_BOUND('',#32,.T.);
#25=FACE_OUTER_BOUND('',#33,.T.);
#26=FACE_OUTER_BOUND('',#34,.T.);
#27=FACE_OUTER_BOUND('',#35,.T.);
#28=FACE_OUTER_BOUND('',#38,.T.);
#29=EDGE_LOOP('',(#95,#96,#97,#98));
#30=EDGE_LOOP('',(#99,#100,#101,#102));
#31=EDGE_LOOP('',(#103,#104,#105,#106));
#32=EDGE_LOOP('',(#107,#108,#109,#110));
#33=EDGE_LOOP('',(#111,#112,#113,#114));
#34=EDGE_LOOP('',(#115,#116,#117,#118));
#35=EDGE_LOOP('',(#119,#120,#121,#122));
#36=EDGE_LOOP('',(#123));
#37=EDGE_LOOP('',(#124));
#38=EDGE_LOOP('',(#125,#126,#127,#128));
#39=EDGE_LOOP('',(#129));
#40=EDGE_LOOP('',(#130));
#41=LINE('',#240,#47);
#42=LINE('',#246,#48);
#43=LINE('',#253,#49);
#44=LINE('',#256,#50);
#45=LINE('',#262,#51);
#46=LINE('',#268,#52);
#47=VECTOR('',#193,0.0885826771653543);
#48=VECTOR('',#200,0.0885826771653543);
#49=VECTOR('',#207,0.393700787401575);
#50=VECTOR('',#210,0.393700787401575);
#51=VECTOR('',#217,0.393700787401575);
#52=VECTOR('',#224,0.393700787401575);
#53=CIRCLE('',#168,0.0885826771653543);
#54=CIRCLE('',#169,0.0885826771653543);
#55=CIRCLE('',#171,0.0885826771653543);
#56=CIRCLE('',#172,0.0885826771653543);
#57=CIRCLE('',#174,6.48571156527834);
#58=CIRCLE('',#175,6.48571156527834);
#59=CIRCLE('',#177,0.143582677165354);
#60=CIRCLE('',#178,0.143582677165354);
#61=CIRCLE('',#180,0.798991715876547);
#62=CIRCLE('',#181,0.798991715876547);
#63=CIRCLE('',#183,0.198582677165354);
#64=CIRCLE('',#184,0.198582677165354);
#65=VERTEX_POINT('',#237);
#66=VERTEX_POINT('',#239);
#67=VERTEX_POINT('',#243);
#68=VERTEX_POINT('',#245);
#69=VERTEX_POINT('',#249);
#70=VERTEX_POINT('',#250);
#71=VERTEX_POINT('',#252);
#72=VERTEX_POINT('',#254);
#73=VERTEX_POINT('',#258);
#74=VERTEX_POINT('',#260);
#75=VERTEX_POINT('',#264);
#76=VERTEX_POINT('',#266);
#77=EDGE_CURVE('',#65,#65,#53,.T.);
#78=EDGE_CURVE('',#65,#66,#41,.T.);
#79=EDGE_CURVE('',#66,#66,#54,.T.);
#80=EDGE_CURVE('',#67,#67,#55,.T.);
#81=EDGE_CURVE('',#67,#68,#42,.T.);
#82=EDGE_CURVE('',#68,#68,#56,.T.);
#83=EDGE_CURVE('',#69,#70,#57,.T.);
#84=EDGE_CURVE('',#70,#71,#43,.T.);
#85=EDGE_CURVE('',#72,#71,#58,.T.);
#86=EDGE_CURVE('',#69,#72,#44,.T.);
#87=EDGE_CURVE('',#73,#69,#59,.T.);
#88=EDGE_CURVE('',#74,#72,#60,.T.);
#89=EDGE_CURVE('',#73,#74,#45,.T.);
#90=EDGE_CURVE('',#75,#73,#61,.T.);
#91=EDGE_CURVE('',#76,#74,#62,.T.);
#92=EDGE_CURVE('',#75,#76,#46,.T.);
#93=EDGE_CURVE('',#70,#75,#63,.T.);
#94=EDGE_CURVE('',#71,#76,#64,.T.);
#95=ORIENTED_EDGE('',*,*,#77,.F.);
#96=ORIENTED_EDGE('',*,*,#78,.T.);
#97=ORIENTED_EDGE('',*,*,#79,.T.);
#98=ORIENTED_EDGE('',*,*,#78,.F.);
#99=ORIENTED_EDGE('',*,*,#80,.F.);
#100=ORIENTED_EDGE('',*,*,#81,.T.);
#101=ORIENTED_EDGE('',*,*,#82,.T.);
#102=ORIENTED_EDGE('',*,*,#81,.F.);
#103=ORIENTED_EDGE('',*,*,#83,.T.);
#104=ORIENTED_EDGE('',*,*,#84,.T.);
#105=ORIENTED_EDGE('',*,*,#85,.F.);
#106=ORIENTED_EDGE('',*,*,#86,.F.);
#107=ORIENTED_EDGE('',*,*,#87,.T.);
#108=ORIENTED_EDGE('',*,*,#86,.T.);
#109=ORIENTED_EDGE('',*,*,#88,.F.);
#110=ORIENTED_EDGE('',*,*,#89,.F.);
#111=ORIENTED_EDGE('',*,*,#90,.T.);
#112=ORIENTED_EDGE('',*,*,#89,.T.);
#113=ORIENTED_EDGE('',*,*,#91,.F.);
#114=ORIENTED_EDGE('',*,*,#92,.F.);
#115=ORIENTED_EDGE('',*,*,#93,.T.);
#116=ORIENTED_EDGE('',*,*,#92,.T.);
#117=ORIENTED_EDGE('',*,*,#94,.F.);
#118=ORIENTED_EDGE('',*,*,#84,.F.);
#119=ORIENTED_EDGE('',*,*,#94,.T.);
#120=ORIENTED_EDGE('',*,*,#91,.T.);
#121=ORIENTED_EDGE('',*,*,#88,.T.);
#122=ORIENTED_EDGE('',*,*,#85,.T.);
#123=ORIENTED_EDGE('',*,*,#80,.T.);
#124=ORIENTED_EDGE('',*,*,#77,.T.);
#125=ORIENTED_EDGE('',*,*,#93,.F.);
#126=ORIENTED_EDGE('',*,*,#83,.F.);
#127=ORIENTED_EDGE('',*,*,#87,.F.);
#128=ORIENTED_EDGE('',*,*,#90,.F.);
#129=ORIENTED_EDGE('',*,*,#82,.F.);
#130=ORIENTED_EDGE('',*,*,#79,.F.);
#131=CYLINDRICAL_SURFACE('',#167,0.0885826771653543);
#132=CYLINDRICAL_SURFACE('',#170,0.0885826771653543);
#133=CYLINDRICAL_SURFACE('',#173,6.48571156527834);
#134=CYLINDRICAL_SURFACE('',#176,0.143582677165354);
#135=CYLINDRICAL_SURFACE('',#179,0.798991715876547);
#136=CYLINDRICAL_SURFACE('',#182,0.198582677165354);
#137=ADVANCED_FACE('',(#21),#131,.F.);
#138=ADVANCED_FACE('',(#22),#132,.F.);
#139=ADVANCED_FACE('',(#23),#133,.T.);
#140=ADVANCED_FACE('',(#24),#134,.T.);
#141=ADVANCED_FACE('',(#25),#135,.F.);
#142=ADVANCED_FACE('',(#26),#136,.T.);
#143=ADVANCED_FACE('',(#27,#15,#16),#19,.T.);
#144=ADVANCED_FACE('',(#28,#17,#18),#20,.F.);
#145=CLOSED_SHELL('',(#137,#138,#139,#140,#141,#142,#143,#144));
#146=DERIVED_UNIT_ELEMENT(#148,1.);
#147=DERIVED_UNIT_ELEMENT(#282,-3.);
#148=(
CONVERSION_BASED_UNIT('gram',#150)
MASS_UNIT()
NAMED_UNIT(#279)
);
#149=(
MASS_UNIT()
NAMED_UNIT(*)
SI_UNIT(.KILO.,.GRAM.)
);
#150=MASS_MEASURE_WITH_UNIT(MASS_MEASURE(0.001),#149);
#151=DERIVED_UNIT((#146,#147));
#152=MEASURE_REPRESENTATION_ITEM('density measure',
POSITIVE_RATIO_MEASURE(1.),#151);
#153=PROPERTY_DEFINITION_REPRESENTATION(#158,#155);
#154=PROPERTY_DEFINITION_REPRESENTATION(#159,#156);
#155=REPRESENTATION('material name',(#157),#276);
#156=REPRESENTATION('density',(#152),#276);
#157=DESCRIPTIVE_REPRESENTATION_ITEM('Generic','Generic');
#158=PROPERTY_DEFINITION('material property','material name',#290);
#159=PROPERTY_DEFINITION('material property','density of part',#290);
#160=DATE_TIME_ROLE('creation_date');
#161=CC_DESIGN_DATE_AND_TIME_ASSIGNMENT(#162,#160,(#290));
#162=DATE_AND_TIME(#163,#164);
#163=CALENDAR_DATE(2026,5,8);
#164=LOCAL_TIME(0,0,0.,#165);
#165=COORDINATED_UNIVERSAL_TIME_OFFSET(0,0,.BEHIND.);
#166=AXIS2_PLACEMENT_3D('',#235,#187,#188);
#167=AXIS2_PLACEMENT_3D('',#236,#189,#190);
#168=AXIS2_PLACEMENT_3D('',#238,#191,#192);
#169=AXIS2_PLACEMENT_3D('',#241,#194,#195);
#170=AXIS2_PLACEMENT_3D('',#242,#196,#197);
#171=AXIS2_PLACEMENT_3D('',#244,#198,#199);
#172=AXIS2_PLACEMENT_3D('',#247,#201,#202);
#173=AXIS2_PLACEMENT_3D('',#248,#203,#204);
#174=AXIS2_PLACEMENT_3D('',#251,#205,#206);
#175=AXIS2_PLACEMENT_3D('',#255,#208,#209);
#176=AXIS2_PLACEMENT_3D('',#257,#211,#212);
#177=AXIS2_PLACEMENT_3D('',#259,#213,#214);
#178=AXIS2_PLACEMENT_3D('',#261,#215,#216);
#179=AXIS2_PLACEMENT_3D('',#263,#218,#219);
#180=AXIS2_PLACEMENT_3D('',#265,#220,#221);
#181=AXIS2_PLACEMENT_3D('',#267,#222,#223);
#182=AXIS2_PLACEMENT_3D('',#269,#225,#226);
#183=AXIS2_PLACEMENT_3D('',#270,#227,#228);
#184=AXIS2_PLACEMENT_3D('',#271,#229,#230);
#185=AXIS2_PLACEMENT_3D('',#272,#231,#232);
#186=AXIS2_PLACEMENT_3D('',#273,#233,#234);
#187=DIRECTION('axis',(0.,0.,1.));
#188=DIRECTION('refdir',(1.,0.,0.));
#189=DIRECTION('center_axis',(0.,1.,0.));
#190=DIRECTION('ref_axis',(1.,0.,-9.88792381306781E-17));
#191=DIRECTION('center_axis',(2.70183181383387E-16,-1.,1.41174848848385E-17));
#192=DIRECTION('ref_axis',(1.,2.70183181383387E-16,-9.88792381306781E-17));
#193=DIRECTION('',(0.,-1.,0.));
#194=DIRECTION('center_axis',(2.70183181383387E-16,-1.,1.41174848848385E-17));
#195=DIRECTION('ref_axis',(1.,2.70183181383387E-16,-9.88792381306781E-17));
#196=DIRECTION('center_axis',(0.,1.,0.));
#197=DIRECTION('ref_axis',(1.,0.,-9.88792381306781E-17));
#198=DIRECTION('center_axis',(2.70183181383387E-16,-1.,1.41174848848385E-17));
#199=DIRECTION('ref_axis',(1.,2.70183181383387E-16,-9.88792381306781E-17));
#200=DIRECTION('',(0.,-1.,0.));
#201=DIRECTION('center_axis',(2.70183181383387E-16,-1.,1.41174848848385E-17));
#202=DIRECTION('ref_axis',(1.,2.70183181383387E-16,-9.88792381306781E-17));
#203=DIRECTION('center_axis',(0.,1.,0.));
#204=DIRECTION('ref_axis',(-0.776840775991946,0.,-0.629697076979266));
#205=DIRECTION('center_axis',(-2.70183181383387E-16,1.,-1.41174848848385E-17));
#206=DIRECTION('ref_axis',(-0.776840775991946,-2.18779051252125E-16,-0.629697076979266));
#207=DIRECTION('',(0.,1.,0.));
#208=DIRECTION('center_axis',(-2.70183181383387E-16,1.,-1.41174848848385E-17));
#209=DIRECTION('ref_axis',(-0.776840775991946,-2.18779051252125E-16,-0.629697076979266));
#210=DIRECTION('',(0.,1.,0.));
#211=DIRECTION('center_axis',(0.,1.,0.));
#212=DIRECTION('ref_axis',(0.70963633449458,0.,-0.704568146288985));
#213=DIRECTION('center_axis',(-2.70183181383387E-16,1.,-1.41174848848385E-17));
#214=DIRECTION('ref_axis',(-1.,-2.70183181383387E-16,9.88792381306781E-17));
#215=DIRECTION('center_axis',(-2.70183181383387E-16,1.,-1.41174848848385E-17));
#216=DIRECTION('ref_axis',(-1.,-2.70183181383387E-16,9.88792381306781E-17));
#217=DIRECTION('',(0.,1.,0.));
#218=DIRECTION('center_axis',(0.,1.,0.));
#219=DIRECTION('ref_axis',(0.524107566855089,0.,0.851652075888527));
#220=DIRECTION('center_axis',(2.70183181383387E-16,-1.,1.41174848848386E-17));
#221=DIRECTION('ref_axis',(0.524107566855089,1.53628235108512E-16,0.851652075888527));
#222=DIRECTION('center_axis',(2.70183181383387E-16,-1.,1.41174848848386E-17));
#223=DIRECTION('ref_axis',(0.524107566855089,1.53628235108512E-16,0.851652075888527));
#224=DIRECTION('',(0.,1.,0.));
#225=DIRECTION('center_axis',(0.,1.,0.));
#226=DIRECTION('ref_axis',(-0.327186772664403,0.,0.944959690036275));
#227=DIRECTION('center_axis',(-2.70183181383387E-16,1.,-1.41174848848385E-17));
#228=DIRECTION('ref_axis',(-1.,-2.70183181383387E-16,9.88792381306781E-17));
#229=DIRECTION('center_axis',(-2.70183181383387E-16,1.,-1.41174848848385E-17));
#230=DIRECTION('ref_axis',(-1.,-2.70183181383387E-16,9.88792381306781E-17));
#231=DIRECTION('center_axis',(-2.70183181383387E-16,1.,-1.41174848848385E-17));
#232=DIRECTION('ref_axis',(0.,1.41174848848385E-17,1.));
#233=DIRECTION('center_axis',(-2.70183181383387E-16,1.,-1.41174848848385E-17));
#234=DIRECTION('ref_axis',(0.,1.41174848848385E-17,1.));
#235=CARTESIAN_POINT('',(0.,0.,0.));
#236=CARTESIAN_POINT('Origin',(-0.104248854250675,1.72034002614498,-2.03424642954968));
#237=CARTESIAN_POINT('',(-0.192831531416029,1.82034002614498,-2.03424642954968));
#238=CARTESIAN_POINT('Origin',(-0.104248854250675,1.82034002614498,-2.03424642954968));
#239=CARTESIAN_POINT('',(-0.192831531416029,1.72034002614498,-2.03424642954968));
#240=CARTESIAN_POINT('',(-0.192831531416029,1.72034002614498,-2.03424642954968));
#241=CARTESIAN_POINT('Origin',(-0.104248854250675,1.72034002614498,-2.03424642954968));
#242=CARTESIAN_POINT('Origin',(-0.604112263650891,1.72034002614498,-1.22274092266702));
#243=CARTESIAN_POINT('',(-0.692694940816245,1.82034002614498,-1.22274092266702));
#244=CARTESIAN_POINT('Origin',(-0.604112263650891,1.82034002614498,-1.22274092266702));
#245=CARTESIAN_POINT('',(-0.692694940816245,1.72034002614498,-1.22274092266702));
#246=CARTESIAN_POINT('',(-0.692694940816245,1.72034002614498,-1.22274092266702));
#247=CARTESIAN_POINT('Origin',(-0.604112263650891,1.72034002614498,-1.22274092266702));
#248=CARTESIAN_POINT('Origin',(4.81470793136054,1.72034002614498,1.97005253463905));
#249=CARTESIAN_POINT('',(-0.223657273870226,1.72034002614498,-2.11398108014734));
#250=CARTESIAN_POINT('',(-0.757415404691878,1.72034002614498,-1.34896780814364));
#251=CARTESIAN_POINT('Origin',(4.81470793136054,1.72034002614498,1.97005253463905));
#252=CARTESIAN_POINT('',(-0.757415404691878,1.82034002614498,-1.34896780814364));
#253=CARTESIAN_POINT('',(-0.757415404691878,1.72034002614498,-1.34896780814364));
#254=CARTESIAN_POINT('',(-0.223657273870226,1.82034002614498,-2.11398108014734));
#255=CARTESIAN_POINT('Origin',(4.81470793136054,1.82034002614498,1.97005253463905));
#256=CARTESIAN_POINT('',(-0.223657273870226,1.72034002614498,-2.11398108014734));
#257=CARTESIAN_POINT('Origin',(-0.104248854250675,1.72034002614498,-2.03424642954968));
#258=CARTESIAN_POINT('',(-0.0253721061705753,1.72034002614498,-1.91426958264045));
#259=CARTESIAN_POINT('Origin',(-0.104248854250675,1.72034002614498,-2.03424642954968));
#260=CARTESIAN_POINT('',(-0.0253721061705753,1.82034002614498,-1.91426958264045));
#261=CARTESIAN_POINT('Origin',(-0.104248854250675,1.82034002614498,-2.03424642954968));
#262=CARTESIAN_POINT('',(-0.0253721061705753,1.72034002614498,-1.91426958264045));
#263=CARTESIAN_POINT('Origin',(0.393385497974855,1.72034002614498,-1.23380662919646));
#264=CARTESIAN_POINT('',(-0.405578457612125,1.72034002614498,-1.22714632048346));
#265=CARTESIAN_POINT('Origin',(0.393385497974855,1.72034002614498,-1.23380662919646));
#266=CARTESIAN_POINT('',(-0.405578457612125,1.82034002614498,-1.22714632048346));
#267=CARTESIAN_POINT('Origin',(0.393385497974855,1.82034002614498,-1.23380662919646));
#268=CARTESIAN_POINT('',(-0.405578457612125,1.72034002614498,-1.22714632048346));
#269=CARTESIAN_POINT('Origin',(-0.604112263650891,1.72034002614498,-1.22274092266702));
#270=CARTESIAN_POINT('Origin',(-0.604112263650891,1.72034002614498,-1.22274092266702));
#271=CARTESIAN_POINT('Origin',(-0.604112263650891,1.82034002614498,-1.22274092266702));
#272=CARTESIAN_POINT('Origin',(-0.604112263650891,1.82034002614498,-1.22274092266702));
#273=CARTESIAN_POINT('Origin',(-0.604112263650891,1.72034002614498,-1.22274092266702));
#274=UNCERTAINTY_MEASURE_WITH_UNIT(LENGTH_MEASURE(0.000393700787401575),
#280,'DISTANCE_ACCURACY_VALUE',
'Maximum model space distance between geometric entities at asserted c
onnectivities');
#275=UNCERTAINTY_MEASURE_WITH_UNIT(LENGTH_MEASURE(0.000393700787401575),
#280,'DISTANCE_ACCURACY_VALUE',
'Maximum model space distance between geometric entities at asserted c
onnectivities');
#276=(
GEOMETRIC_REPRESENTATION_CONTEXT(3)
GLOBAL_UNCERTAINTY_ASSIGNED_CONTEXT((#274))
GLOBAL_UNIT_ASSIGNED_CONTEXT((#280,#284,#285))
REPRESENTATION_CONTEXT('','3D')
);
#277=(
GEOMETRIC_REPRESENTATION_CONTEXT(3)
GLOBAL_UNCERTAINTY_ASSIGNED_CONTEXT((#275))
GLOBAL_UNIT_ASSIGNED_CONTEXT((#280,#284,#285))
REPRESENTATION_CONTEXT('','3D')
);
#278=DIMENSIONAL_EXPONENTS(1.,0.,0.,0.,0.,0.,0.);
#279=DIMENSIONAL_EXPONENTS(0.,1.,0.,0.,0.,0.,0.);
#280=(
CONVERSION_BASED_UNIT('inch',#283)
LENGTH_UNIT()
NAMED_UNIT(#278)
);
#281=(
LENGTH_UNIT()
NAMED_UNIT(*)
SI_UNIT(.MILLI.,.METRE.)
);
#282=(
LENGTH_UNIT()
NAMED_UNIT(*)
SI_UNIT(.CENTI.,.METRE.)
);
#283=LENGTH_MEASURE_WITH_UNIT(LENGTH_MEASURE(25.4),#281);
#284=(
NAMED_UNIT(*)
PLANE_ANGLE_UNIT()
SI_UNIT($,.RADIAN.)
);
#285=(
NAMED_UNIT(*)
SI_UNIT($,.STERADIAN.)
SOLID_ANGLE_UNIT()
);
#286=SHAPE_DEFINITION_REPRESENTATION(#287,#288);
#287=PRODUCT_DEFINITION_SHAPE('',$,#290);
#288=SHAPE_REPRESENTATION('',(#166),#276);
#289=DESIGN_CONTEXT('part definition',#294,'design');
#290=PRODUCT_DEFINITION('Grating Assembly Cap','Grating Assembly Cap',#291,
#289);
#291=PRODUCT_DEFINITION_FORMATION('',$,#296);
#292=PRODUCT_RELATED_PRODUCT_CATEGORY('Grating Assembly Cap',
'Grating Assembly Cap',(#296));
#293=APPLICATION_PROTOCOL_DEFINITION('international standard',
'ap203_configuration_controlled_3d_design_of_mechanical_parts_and_asse
mblies_mim_lf',2004,#294);
#294=APPLICATION_CONTEXT(
'Configuration Controlled 3D Design of Mechanical Parts and Assemblies');
#295=MECHANICAL_CONTEXT('part definition',#294,'mechanical');
#296=PRODUCT('Grating Assembly Cap','Grating Assembly Cap',$,(#295));
#297=PRESENTATION_STYLE_ASSIGNMENT((#298));
#298=SURFACE_STYLE_USAGE(.BOTH.,#301);
#299=SURFACE_STYLE_RENDERING_WITH_PROPERTIES($,#305,(#300));
#300=SURFACE_STYLE_TRANSPARENT(0.);
#301=SURFACE_SIDE_STYLE('',(#302,#299));
#302=SURFACE_STYLE_FILL_AREA(#303);
#303=FILL_AREA_STYLE('',(#304));
#304=FILL_AREA_STYLE_COLOUR('',#305);
#305=COLOUR_RGB('',0.749019607843137,0.749019607843137,0.749019607843137);
ENDSEC;
END-ISO-10303-21;
